<svg xmlns="http://www.w3.org/2000/svg" viewBox="0 0 60 60">
    <title>Card Colored Icon</title><path d="M46.5,19.25V40.8125H13.375V19.25Z" fill="#fff"/><path d="M46.5,25.25V30H13.0833V25.25Z" fill="#ffb549"/><path d="M45.4283,18.2856A2.0754,2.0754,0,0,1,47.5,20.3584V39.6427a2.0747,2.0747,0,0,1-2.0717,2.0717H14.5728A2.0754,2.0754,0,0,1,12.5,39.6427V20.3584a2.0754,2.0754,0,0,1,2.0728-2.0728ZM14.0735,24.47h31.853V20.3584a.4989.4989,0,0,0-.4981-.4993H14.5728a.4992.4992,0,0,0-.4993.4991V24.47Zm31.853,15.1723V30.7359H14.0735v8.9068a.4989.4989,0,0,0,.4993.4981H45.4283A.4987.4987,0,0,0,45.9265,39.6427ZM16.9036,26.8777a.5683.5683,0,0,1-.5675-.5691v0a.5592.5592,0,0,1,.0744-.2645H14.0735v3.1186h31.853V26.5945a.559.559,0,0,1-.48.2833.5683.5683,0,0,1-.5675-.5691v0a.5581.5581,0,0,1,.0738-.2644H41.8974a.5591.5591,0,0,1,.0744.2644.5675.5675,0,1,1-1.1345.029q0-.0145,0-.029a.5581.5581,0,0,1,.0738-.2644H37.8065a.5581.5581,0,0,1,.0738.2644.5675.5675,0,1,1-1.1345.029q0-.0145,0-.029a.5591.5591,0,0,1,.0744-.2644H33.7155a.5581.5581,0,0,1,.0738.2644.5675.5675,0,1,1-1.1345.029q0-.0145,0-.029a.5581.5581,0,0,1,.0738-.2644H29.6234a.5591.5591,0,0,1,.0744.2644.5675.5675,0,1,1-1.1345.029q0-.0145,0-.029a.5581.5581,0,0,1,.0738-.2644H25.5314a.5591.5591,0,0,1,.0744.2644.5675.5675,0,1,1-1.1345.029q0-.0145,0-.029a.5581.5581,0,0,1,.0738-.2644H21.4876a.5591.5591,0,0,1,.0744.2644.567.567,0,1,1-1.1339.0145q0-.0072,0-.0145a.5581.5581,0,0,1,.0738-.2644H17.3966a.5581.5581,0,0,1,.0738.2644.5681.5681,0,0,1-.5667.5695Zm-2.0157.7636a.5691.5691,0,1,1-.5664.5718V28.21A.5681.5681,0,0,1,14.8879,27.6413Zm8.1827,1.1381a.569.569,0,1,1,.5675-.5706v.001a.5681.5681,0,0,1-.5666.57Zm-4.0913,0a.569.569,0,1,1,.5675-.5706v.001a.5681.5681,0,0,1-.5666.57h-.0008Zm8.1346,0a.569.569,0,1,1,.5675-.5706v.001a.5683.5683,0,0,1-.567.57h0Zm8.1828,0a.569.569,0,1,1,.5675-.5706v.001a.5683.5683,0,0,1-.567.57h0Zm-4.0914,0a.569.569,0,1,1,.5675-.5706v.001a.5683.5683,0,0,1-.567.57h0Zm12.2742,0a.569.569,0,1,1,.5675-.5706v.001a.5675.5675,0,0,1-.5653.57H43.48Zm-4.0914,0a.569.569,0,1,1,.5675-.5706v.001a.5675.5675,0,0,1-.5653.57h-.0021Z" fill="#004f71"/>
</svg>