<svg xmlns="http://www.w3.org/2000/svg" viewBox="0 0 60 60">
    <title>Catering Icon</title>
    <path d="M50.3316,40.3405a.9115.9115,0,0,1-.9135.9095H10.5818a.9135.9135,0,0,1,0-1.8269H49.414a.9139.9139,0,0,1,.9176.91ZM13.0373,37.0354a15.5682,15.5682,0,0,1,13.57-15.4139V19.6586a.9124.9124,0,0,1,.9162-.9086h5.4992a.91.91,0,0,1,.9092.9083V21.613A15.5684,15.5684,0,0,1,47.5538,37.0352a.92.92,0,0,1-.9177.9177H13.956A.92.92,0,0,1,13.0373,37.0354ZM28.4351,21.494h3.67v-.9176h-3.67ZM14.8983,36.1178h1.5465a.7441.7441,0,1,1,1.385,0h2.7788a.7659.7659,0,0,1-.051-.28.7478.7478,0,1,1,1.4369.28h2.9393a.753.753,0,1,1,1.385,0h2.94a.6272.6272,0,0,1-.0594-.28.7482.7482,0,0,1,1.4963,0,.6162.6162,0,0,1-.06.28H33.66a.6153.6153,0,0,1-.0586-.28.7474.7474,0,1,1,1.4439.28h2.906c0-.0089-.0089-.0089-.0089-.017a.7478.7478,0,1,1,1.4955,0v.017h3.008a.6832.6832,0,0,1-.153-.4252.7477.7477,0,0,1,1.4954-.0022v.0022a.7248.7248,0,0,1-.1444.4252h2.0479a15.107,15.107,0,0,0-.2464-1.759.7029.7029,0,0,1-.3229.085.7477.7477,0,0,1-.034-1.4947,13.7543,13.7543,0,0,0-10.2478-9.3222.7327.7327,0,0,1-.62.3654.7517.7517,0,0,1-.7214-.5863,14.2913,14.2913,0,0,0-1.4869-.085H30.6777a.7329.7329,0,0,1-1.4606,0h-.63a13.3317,13.3317,0,0,0-2.2688.2037.74.74,0,0,1-1.2066.2549,13.7516,13.7516,0,0,0-9.73,9.5765.728.728,0,0,1-.289,1.2579A12.5685,12.5685,0,0,0,14.8983,36.1178Zm19.32-7.859a.7486.7486,0,1,0-.7494-.7486.7486.7486,0,0,0,.7494.7486Zm-4.271.019a.7494.7494,0,0,0,.7495-.7486l-.0026-.01.0026-.0089a.7491.7491,0,0,0-1.498,0l.0017.0089-.0017.01a.7491.7491,0,0,0,.7481.7485Zm6.5945,6.158a.7491.7491,0,1,0-.7486-.7495.7491.7491,0,0,0,.7486.7495ZM32.1391,25.99a.7486.7486,0,1,0-.7486-.7486.7486.7486,0,0,0,.7486.7486Zm0,8.4457a.7491.7491,0,1,0-.7486-.7495.7491.7491,0,0,0,.7486.7495Zm0-4.1566a.7486.7486,0,1,0-.7486-.7486.7486.7486,0,0,0,.7486.7486Zm4.4743-.0116a.7491.7491,0,1,0-.7486-.7495v.0009a.7494.7494,0,0,0,.7485.7486Zm0-4.183a.7486.7486,0,1,0-.7486-.7486.7486.7486,0,0,0,.7486.7486Zm4.4026,4.183a.7491.7491,0,1,0-.7486-.7495v.0009a.7492.7492,0,0,0,.7481.7486Zm1.9467,2.4239a.7532.7532,0,1,0-.0005,0Zm-2.0778,2.002a.54.54,0,1,0-.0005,0Zm-2.1924-6.4276a.5408.5408,0,1,0-.0005,0Zm-.073,4.1673a.7486.7486,0,1,0-.7486-.7486.7486.7486,0,0,0,.7486.7486Zm-4.4013,0a.7486.7486,0,1,0-.7494-.7486.7486.7486,0,0,0,.7494.7486Zm-12.9134,0a.7486.7486,0,1,0-.7486-.7486.7486.7486,0,0,0,.7486.7486Zm-2.1285-2.1542a.54.54,0,1,0-.0005,0Zm4.32,4.1568a.7491.7491,0,1,0-.7486-.7495A.7491.7491,0,0,0,23.4964,34.4357Zm-2.1923-6.158a.7492.7492,0,0,0,.7486-.7486l-.0018-.01.0018-.0089a.7486.7486,0,0,0-1.497,0l.0017.0089-.0017.01a.7492.7492,0,0,0,.7487.7486Zm8.6424,4.1557a.7486.7486,0,1,0-.7485-.7487h0a.7494.7494,0,0,0,.7488.7487Zm-12.8112,0a.7486.7486,0,1,0-.7486-.7486.7486.7486,0,0,0,.7486.7486Zm2.04,2.002a.7491.7491,0,1,0-.7494-.7495.7491.7491,0,0,0,.7494.7495h.0006Zm4.3208-4.1561a.7486.7486,0,1,0-.7486-.7486A.7486.7486,0,0,0,23.4964,30.2792ZM27.8179,25.99a.7486.7486,0,1,0-.7486-.7486.7486.7486,0,0,0,.7486.7486Zm0,8.4457a.7491.7491,0,1,0-.7486-.7495.7491.7491,0,0,0,.7486.7495Zm0-4.1566a.7486.7486,0,1,0-.7486-.7486.7486.7486,0,0,0,.7486.7486Zm-2.1921-2.0015a.7492.7492,0,0,0,.7486-.7486l-.0017-.01.0017-.0089a.7486.7486,0,0,0-1.497,0l.0018.0089-.0018.01A.7492.7492,0,0,0,25.6259,28.2777Zm-2.13-2.2877a.7486.7486,0,1,0-.7486-.7486A.7486.7486,0,0,0,23.4964,25.99Zm2.1293,6.4434a.7486.7486,0,1,0-.7486-.7486.7486.7486,0,0,0,.7486.7486Z" fill="#004f71"/>
</svg>
