<svg xmlns="http://www.w3.org/2000/svg" viewBox="0 0 60 60">
    <title>Truck Icon</title>
    <path fill="#004f71" d="M47.7653,17.8362c2.7886,4.9822,3.2623,13.7509,1.1522,21.3247a1.0483,1.0483,0,0,1-1.009.77H45.5748a1,1,0,0,1-.1125-.0119,4.7911,4.7911,0,0,1-9.3692,0,1.0325,1.0325,0,0,1-.1153.0119H23.9772a1.05,1.05,0,0,1-.1153-.0119,4.791,4.791,0,0,1-9.3664.0119H10.7769a1.0516,1.0516,0,0,1-1.0481-1.0544V31.3636a3.8023,3.8023,0,0,1,2.4923-3.5813L16.4848,26.25l3.857-6.4906a5.0269,5.0269,0,0,1,4.293-2.46H46.852A1.0477,1.0477,0,0,1,47.7653,17.8362Zm-.6624,19.9856C48.7386,31.2982,48.3787,23.8,46.22,19.4079H29.8255v7.3966a1.0512,1.0512,0,0,1-1.0481,1.0544h-10.8c-.0189,0-.0363-.0049-.0545-.0056a1.0479,1.0479,0,0,1-.3787.2552l-4.6179,1.66a1.691,1.691,0,0,0-1.1012,1.5956v6.4583h2.6705a4.7914,4.7914,0,0,1,9.3671.012,1.02,1.02,0,0,1,.1146-.012H35.9778a1.05,1.05,0,0,1,.1153.012,4.7915,4.7915,0,0,1,9.37,0,.9877.9877,0,0,1,.1118-.012ZM40.7773,41.83a2.954,2.954,0,1,0-2.936-2.955A2.9491,2.9491,0,0,0,40.7773,41.83Zm-21.6,0a2.954,2.954,0,1,0-2.936-2.955A2.95,2.95,0,0,0,19.177,41.83Zm2.964-20.9894L19.2238,25.75h8.5056V19.4079H24.6347A2.9213,2.9213,0,0,0,22.141,20.8411Zm5.4365,9.7375a1.0544,1.0544,0,0,1,0,2.1087h-2.4a1.0544,1.0544,0,0,1,0-2.1087Z"/>
</svg>
