<svg xmlns="http://www.w3.org/2000/svg" viewBox="0 0 53 53">
    <title>Icon Checkmark</title>
    <path d="M26.5.5a26,26,0,1,0,26,26A26.0295,26.0295,0,0,0,26.5.5Z" fill="#dd0031"/>
    <path d="M26.5,48.5a22,22,0,1,1,22-22A22.0249,22.0249,0,0,1,26.5,48.5Z" fill="#fff"/>
    <path d="M24.7083,32.2891c-.0132,0-.0264,0-.04-.001a1.4958,1.4958,0,0,1-1.1548-.5928l-4.7783-6.2979a1.5,1.5,0,1,1,2.39-1.8135l3.6475,4.8076,7.1519-8.4536a1.5,1.5,0,0,1,2.291,1.9375l-8.3618,9.8823A1.498,1.498,0,0,1,24.7083,32.2891Z" fill="#dd0031"/>
</svg>