<svg width="150" height="150" viewBox="0 0 150 150" fill="none" xmlns="http://www.w3.org/2000/svg">
<circle cx="75" cy="75" r="71" stroke="#DD0031" stroke-width="8"/>
<path fill-rule="evenodd" clip-rule="evenodd" d="M80.5843 71.6534L83.4646 35.5912H65.4921L67.6501 62.6694C68.0925 62.2089 68.7065 61.9245 69.3927 61.9245C70.7426 61.9245 71.8351 63.0215 71.8351 64.3714C71.8351 65.7258 70.7426 66.8183 69.3927 66.8183C68.8374 66.8183 68.3453 66.6016 67.939 66.2856L68.8961 78.3484C68.951 78.3369 69.0036 78.3225 69.0556 78.3084C69.1658 78.2783 69.273 78.2491 69.3927 78.2491C70.7426 78.2491 71.8351 79.3461 71.8351 80.696C71.8351 81.7524 71.1624 82.6282 70.2279 82.9758H79.6814L80.4172 73.7436C79.9974 74.484 79.2344 75.0032 78.3225 75.0032C76.9772 75.0032 75.8846 73.9061 75.8846 72.5563C75.8846 71.2019 76.9772 70.1094 78.3225 70.1094C79.3563 70.1094 80.2276 70.7504 80.5843 71.6534ZM68.7959 115.677C70.2044 117.162 72.1999 118.096 74.4752 118.096C78.8137 118.096 82.2131 114.756 82.2131 110.489C82.2131 108.724 81.6172 107.112 80.6466 105.794C80.3802 106.855 79.4638 107.654 78.3261 107.654C76.9808 107.654 75.8837 106.557 75.8837 105.207C75.8837 104.304 76.3939 103.55 77.1207 103.122C76.29 102.815 75.4052 102.62 74.4752 102.62C70.2089 102.62 66.7373 106.151 66.7373 110.489C66.7373 111.257 66.8817 111.979 67.0894 112.674C67.3828 111.659 68.2812 110.9 69.3918 110.9C70.7417 110.9 71.8342 111.997 71.8342 113.347C71.8342 114.701 70.7417 115.798 69.3918 115.798C69.2323 115.798 69.0881 115.758 68.942 115.716C68.8937 115.703 68.8452 115.689 68.7959 115.677ZM59.9654 110.489C59.9654 102.417 66.4754 95.8486 74.4752 95.8486C82.475 95.8486 88.9849 102.417 88.9849 110.489C88.9849 118.552 82.6104 124.868 74.4752 124.868C66.34 124.868 59.9654 118.552 59.9654 110.489ZM85.934 89.7477L90.8007 28.8193H58.156L63.0182 89.7477H85.934Z" fill="#DD0031"/>
<path fill-rule="evenodd" clip-rule="evenodd" d="M78.3235 42.3516C79.6734 42.3516 80.7659 41.2546 80.7659 39.9047C80.7659 38.5503 79.6734 37.4578 78.3235 37.4578C76.9782 37.4578 75.8857 38.5503 75.8857 39.9047C75.8857 41.2546 76.9782 42.3516 78.3235 42.3516Z" fill="#DD0031"/>
<path fill-rule="evenodd" clip-rule="evenodd" d="M78.3235 58.6771C79.6734 58.6771 80.7659 57.5801 80.7659 56.2302C80.7659 54.8758 79.6734 53.7833 78.3235 53.7833C76.9782 53.7833 75.8857 54.8758 75.8857 56.2302C75.8857 57.5801 76.9782 58.6771 78.3235 58.6771Z" fill="#DD0031"/>
<path fill-rule="evenodd" clip-rule="evenodd" d="M69.3911 50.4945C70.7409 50.4945 71.8334 49.3974 71.8334 48.0476C71.8334 46.6932 70.7409 45.6007 69.3911 45.6007C68.0412 45.6007 66.9487 46.6932 66.9487 48.0476C66.9487 49.3974 68.0412 50.4945 69.3911 50.4945Z" fill="#DD0031"/>
</svg>
