<svg xmlns="http://www.w3.org/2000/svg" viewBox="0 0 42 42"><title>Cow Icon</title>
    <path d="M13.51,13.43H5.2s.59,4.11,4.16,4.11S13.51,13.43,13.51,13.43ZM21,15a9.76,9.76,0,0,1,1.44-5.1A12.24,12.24,0,0,0,21,9.78c-6,0-7.49,3.85-7.49,3.85A50.86,50.86,0,0,0,16,29.08v.25a2.39,2.39,0,0,1,1.51-2.22,9.45,9.45,0,0,1,7,0A2.39,2.39,0,0,1,26,29.33v-.24a49,49,0,0,0,1.28-4.73A10.42,10.42,0,0,1,21,15Zm3,16.85a3.0868,3.0868,0,0,1-6,.02Z" fill="#fff"/><path d="M32.65,17.52c-3.46,0-4-4-4-4h8.07S36.11,17.52,32.65,17.52ZM22.56,10.18A9.66,9.66,0,0,0,27.48,24a49.26,49.26,0,0,0,1.08-10.11S27.33,10.67,22.56,10.18ZM19,31.85h-.62a2.41,2.41,0,0,1-2.4-2.4h0a2.41,2.41,0,0,1,1.51-2.23h0a9.58,9.58,0,0,1,7,0h0A2.41,2.41,0,0,1,26,29.45h0a2.41,2.41,0,0,1-2.4,2.4Z" fill="#c06b9a"/><path d="M23.96,29.44v.01a.85.85,0,1,1,0-.01ZM16.18,17.82a1,1,0,1,0,1,1A1,1,0,0,0,16.18,17.82Zm21.2449-4.4052a.6291.6291,0,0,1-.0049.0652v.04c-.23,1.6-1.53,4.64-4.78,4.64A4.33,4.33,0,0,1,29,16.32a51.9171,51.9171,0,0,1-2.4,13v.11a3,3,0,0,1-2.09,2.86,3.76,3.76,0,0,1-7.12,0,3,3,0,0,1-2.09-2.86v-.11a51.8208,51.8208,0,0,1-2.4-13,4.33,4.33,0,0,1-3.6,1.84c-3.25,0-4.55-3-4.78-4.64a.64.64,0,0,1,.5547-.7151A.6476.6476,0,0,1,5.14,12.8h8.12c.79-1.22,2.9-3.52,7.68-3.52H22c4.06.3,5.92,2.36,6.65,3.48H36.8A.64.64,0,0,1,37.4249,13.4148ZM12.72,14.05H6a3.58,3.58,0,0,0,.2988.8323A.4224.4224,0,0,1,6.27,14.74a.44.44,0,0,1,.43-.44v-.01h0a.44.44,0,0,1,.43.45.43.43,0,0,1-.43.43.4243.4243,0,0,1-.3687-.2217A3.601,3.601,0,0,0,9.37,16.91a3.5784,3.5784,0,0,0,1.6652-.5008.4181.4181,0,0,1-.0752-.2284V16.18a.4276.4276,0,0,1,.7416-.2931A3.57,3.57,0,0,0,12.72,14.05ZM23.15,32.47H18.84A2.53,2.53,0,0,0,21,33.6,2.5,2.5,0,0,0,23.15,32.47Zm2.25-3v0a1.78,1.78,0,0,0-1.11-1.65,8.91,8.91,0,0,0-6.58,0,1.77,1.77,0,0,0,.66,3.42h5.26A1.77,1.77,0,0,0,25.4,29.47Zm1.2457-4.8922A10.63,10.63,0,0,1,20.32,14.91a10.4893,10.4893,0,0,1,1-4.35H21c-5,0-6.59,2.78-6.86,3.35A51.1875,51.1875,0,0,0,16.09,27.5a3.16,3.16,0,0,1,1.16-.83,10.22,10.22,0,0,1,7.5,0,3.1593,3.1593,0,0,1,1.16.83C26.1288,26.6944,26.3872,25.72,26.6458,24.5779ZM26.89,23.31c.052-.2673.0893-.537.1369-.8051A.4211.4211,0,0,1,27.15,21.78q.1687-1.0382.2923-2.082A.4334.4334,0,0,1,27.3,19.73a.44.44,0,0,1-.43-.44.4108.4108,0,0,1,.0174-.0861.9533.9533,0,1,1-1.4785-1.1316A.4275.4275,0,1,1,26.2,17.85l-.0027.0138a.9028.9028,0,0,1,.7337,1.2185A.4244.4244,0,0,1,27.3,18.86a.4182.4182,0,0,1,.2347.0792,50.0008,50.0008,0,0,0,.2748-5.04c-.0233-.0474-.0592-.1148-.1027-.1913A.4251.4251,0,0,1,27.3,14v-.05a.4286.4286,0,0,1-.0148-.857,5.8233,5.8233,0,0,0-1.0916-1.0444c.0009.0109.0063.02.0063.0314a.43.43,0,1,1-.5723-.4012A8.1329,8.1329,0,0,0,22.6,10.66a9.2305,9.2305,0,0,0-1,4.25A9.39,9.39,0,0,0,26.89,23.31Zm9.12-9.24H29.28a3.3788,3.3788,0,0,0,1.0364,1.9209A.414.414,0,0,1,30.42,15.97a.4389.4389,0,0,1,.4279.4294,3.3822,3.3822,0,0,0,2.3492.4835c.0766-.0126.1484-.0375.2232-.0551a.4242.4242,0,0,1-.32-.4078.43.43,0,1,1,.74.2836A3.4048,3.4048,0,0,0,36.01,14.07ZM18.89,28.6h-.02a.85.85,0,1,0,.02,0ZM8.28,16.61a.4351.4351,0,0,0,.01-.87H8.28v.01a.43.43,0,1,0,0,.86Zm1.6011-1.5012A.4106.4106,0,0,0,9.82,14.29H9.81v.01a.41.41,0,1,0,.0712.8088ZM27.3,16.84a.43.43,0,1,0-.43-.43A.43.43,0,0,0,27.3,16.84Zm-4.7111-2.3712A.4715.4715,0,0,0,22.66,15.4a.43.43,0,0,0,.43-.43.44.44,0,0,0-.5012-.5011ZM35.11,15.41V15.4a.425.425,0,1,0,0,.01Zm-9.34,4.9a.43.43,0,1,0,.43.43A.43.43,0,0,0,25.77,20.31Zm-1.58-7.22a.43.43,0,0,0,0,.86V14a.4557.4557,0,0,0,0-.91ZM32,15.41V15.4a.43.43,0,0,0,.43-.42.435.435,0,1,0-.43.43Zm-7.81.57a.43.43,0,1,0,.43.43A.43.43,0,0,0,24.19,15.98Zm-1.53-4.33a.43.43,0,0,0,0,.86.44.44,0,0,0,.43-.43A.43.43,0,0,0,22.66,11.65Zm.0612,5.8311a.4056.4056,0,1,0,.3689.3688A.44.44,0,0,0,22.7211,17.4811ZM24.19,18.86a.43.43,0,0,0-.43.43.43.43,0,1,0,.86,0A.43.43,0,0,0,24.19,18.86Zm1.58-3.46a.43.43,0,1,0-.43-.43A.43.43,0,0,0,25.77,15.4Z" fill="#004f71"/>
</svg>
