<svg width="332" height="340" viewBox="0 0 332 340" fill="none" xmlns="http://www.w3.org/2000/svg">
<g filter="url(#filter0_d)">
<path d="M274.351 200.106H49.5024C31.0705 200.106 16.0752 185.111 16.0752 166.679C16.0752 163.74 18.458 161.357 21.3969 161.357H302.458C305.396 161.357 307.779 163.74 307.779 166.679C307.779 185.111 292.783 200.106 274.351 200.106V200.106ZM27.346 172C29.7488 182.005 38.7711 189.462 49.5024 189.462H274.352C285.083 189.462 294.105 182.005 296.508 172H27.346Z" fill="url(#paint0_linear)"/>
<path d="M284.024 172C284.019 172 284.015 172 284.011 172H39.8408C36.9019 172 34.519 169.618 34.519 166.679C34.519 96.4251 91.6739 39.2695 161.927 39.2695C232.05 39.2695 289.123 96.2148 289.331 166.292C289.341 166.419 289.345 166.549 289.345 166.679C289.346 169.618 286.963 172 284.024 172ZM45.2823 161.357H278.57C275.777 99.4332 224.526 49.913 161.927 49.913C99.3272 49.913 48.0749 99.4332 45.2823 161.357V161.357Z" fill="url(#paint1_linear)"/>
<path d="M220.632 92.0443L216.506 88.683C212.182 85.1613 207.595 82.0554 202.87 79.4531L198.208 76.886L203.343 67.563L208.004 70.1307C213.288 73.0404 218.41 76.5062 223.228 80.4316L227.354 83.793L220.632 92.0443Z" fill="url(#paint2_linear)"/>
<path d="M253.54 154.114L252.43 148.91C248.672 131.285 240.793 114.948 229.645 101.662L226.225 97.5854L234.378 90.7437L237.799 94.8201C250.061 109.434 258.721 127.37 262.84 146.69L263.95 151.894L253.54 154.114Z" fill="url(#paint3_linear)"/>
<path d="M147.874 50.7177C146.575 50.7177 145.312 50.2421 144.333 49.3687C143.2 48.3589 142.552 46.9133 142.552 45.396V35.2647C142.552 24.6418 151.194 16 161.818 16H162.035C172.659 16 181.301 24.6418 181.301 35.2647V45.396C181.301 46.9133 180.653 48.3589 179.521 49.3687C178.388 50.3785 176.876 50.8548 175.37 50.6825C166.509 49.6607 157.347 49.6607 148.483 50.6825C148.28 50.7058 148.076 50.7177 147.874 50.7177V50.7177ZM161.818 26.6435C157.064 26.6435 153.196 30.5111 153.196 35.2647V39.5667C159.006 39.1715 164.85 39.1715 170.659 39.5667V35.2647C170.659 30.5111 166.791 26.6435 162.036 26.6435H161.818Z" fill="url(#paint4_linear)"/>
<path d="M40.9137 316C40.1606 316 39.4023 315.84 38.6912 315.513C36.8033 314.645 35.5933 312.756 35.5933 310.678V248.214C35.5933 246.435 36.4827 244.773 37.9634 243.786C37.9634 243.786 71.1691 221.654 81.6656 214.656C83.9739 213.113 86.4565 211.744 89.0389 210.592L120.731 196.512C121.411 196.21 122.147 196.054 122.892 196.054C126.652 196.054 140.471 195.314 153.834 194.598C167.96 193.842 181.303 193.127 185.349 193.127C187.794 193.127 189.925 194.794 190.515 197.167C191.103 199.541 189.999 202.01 187.837 203.154L143.055 226.835C147.986 228.136 153.643 229.629 158.814 230.995C162.062 231.852 165.412 232.287 168.772 232.287C174.8 232.287 180.837 230.863 186.23 228.167C208.9 216.826 249.33 196.616 249.33 196.616C251.103 195.73 253.219 195.901 254.825 197.061C256.43 198.22 257.26 200.175 256.977 202.135L256.46 205.725C254.085 222.197 243.7 236.309 228.679 243.477L184.987 264.312C178.353 267.48 170.957 269.155 163.601 269.155H111.974C102.66 269.155 93.6389 272.491 86.5709 278.55C70.442 292.374 44.3788 314.718 44.3788 314.718C43.3949 315.561 42.161 316 40.9137 316V316ZM46.2367 251.063V299.106C55.2791 291.354 69.4475 279.208 79.6447 270.469C88.6391 262.758 100.121 258.511 111.974 258.511H163.602C169.381 258.511 175.191 257.195 180.404 254.707L224.097 233.871C233.766 229.256 240.991 220.979 244.313 211.023C230.905 217.726 206.691 229.832 190.991 237.686C184.126 241.118 176.444 242.93 168.773 242.93C168.773 242.93 168.773 242.93 168.773 242.93C164.496 242.93 160.231 242.377 156.097 241.285C143.153 237.866 127.159 233.649 127.159 233.649C125.039 233.09 123.479 231.288 123.229 229.11C122.979 226.932 124.09 224.823 126.028 223.798L161.907 204.825C159.436 204.956 156.912 205.091 154.404 205.226C141.421 205.921 129.101 206.581 124.052 206.683L93.3688 220.315C91.3432 221.219 89.3914 222.295 87.5761 223.508C78.7719 229.378 54.0145 245.879 46.2367 251.063V251.063Z" fill="url(#paint5_linear)"/>
<path d="M40.9137 316C40.16 316 39.4023 315.84 38.6912 315.513C36.8033 314.645 35.5933 312.756 35.5933 310.678V248.214C35.5933 246.435 36.4827 244.773 37.9628 243.787L57.4809 230.775C59.114 229.686 61.2141 229.584 62.9437 230.511C64.6739 231.437 65.7542 233.24 65.7542 235.203V293.948C65.7542 295.501 65.0751 296.977 63.8963 297.989L44.3781 314.719C43.3943 315.562 42.161 316 40.9137 316V316ZM46.2367 251.063V299.108L55.1114 291.501V245.146L46.2367 251.063Z" fill="url(#paint6_linear)"/>
</g>
<defs>
<filter id="filter0_d" x="0.0751953" y="0" width="331.704" height="340" filterUnits="userSpaceOnUse" color-interpolation-filters="sRGB">
<feFlood flood-opacity="0" result="BackgroundImageFix"/>
<feColorMatrix in="SourceAlpha" type="matrix" values="0 0 0 0 0 0 0 0 0 0 0 0 0 0 0 0 0 0 127 0"/>
<feOffset dx="4" dy="4"/>
<feGaussianBlur stdDeviation="10"/>
<feColorMatrix type="matrix" values="0 0 0 0 0 0 0 0 0 0 0 0 0 0 0 0 0 0 0.2 0"/>
<feBlend mode="normal" in2="BackgroundImageFix" result="effect1_dropShadow"/>
<feBlend mode="normal" in="SourceGraphic" in2="effect1_dropShadow" result="shape"/>
</filter>
<linearGradient id="paint0_linear" x1="161.927" y1="161.357" x2="161.927" y2="200.106" gradientUnits="userSpaceOnUse">
<stop stop-color="#E02245"/>
<stop offset="1" stop-color="#E0002A"/>
</linearGradient>
<linearGradient id="paint1_linear" x1="161.932" y1="39.2695" x2="161.932" y2="172" gradientUnits="userSpaceOnUse">
<stop stop-color="#E02245"/>
<stop offset="1" stop-color="#E0002A"/>
</linearGradient>
<linearGradient id="paint2_linear" x1="212.781" y1="67.563" x2="212.781" y2="92.0443" gradientUnits="userSpaceOnUse">
<stop stop-color="#E02245"/>
<stop offset="1" stop-color="#E0002A"/>
</linearGradient>
<linearGradient id="paint3_linear" x1="245.087" y1="90.7437" x2="245.087" y2="154.114" gradientUnits="userSpaceOnUse">
<stop stop-color="#E02245"/>
<stop offset="1" stop-color="#E0002A"/>
</linearGradient>
<linearGradient id="paint4_linear" x1="161.927" y1="16" x2="161.927" y2="50.7177" gradientUnits="userSpaceOnUse">
<stop stop-color="#E02245"/>
<stop offset="1" stop-color="#E0002A"/>
</linearGradient>
<linearGradient id="paint5_linear" x1="146.313" y1="193.127" x2="146.313" y2="316" gradientUnits="userSpaceOnUse">
<stop stop-color="#E02245"/>
<stop offset="1" stop-color="#E0002A"/>
</linearGradient>
<linearGradient id="paint6_linear" x1="50.6738" y1="229.881" x2="50.6738" y2="316" gradientUnits="userSpaceOnUse">
<stop stop-color="#E02245"/>
<stop offset="1" stop-color="#E0002A"/>
</linearGradient>
</defs>
</svg>
