<svg xmlns="http://www.w3.org/2000/svg" viewBox="0 0 42 42">
    <title>Gift Icon</title>
    <path d="M32.69,14.03v6.21h-1.6V32.83H10.92V20.24H9.3V14.03Z" fill="#f2676c"/>
    <path d="M30.68,14H24.17V32.84H17.84V14H11.32V9.18l7.53,3.76a2.39,2.39,0,0,1,4.3,0l7.53-3.76Z" fill="#fff"/><path d="M14.12,12.5a.43.43,0,1,1-.43-.43A.44.44,0,0,1,14.12,12.5Zm-2-1.88a.44.44,0,0,0-.43.44.43.43,0,0,0,.86.0008V11.06a.44.44,0,0,0-.44-.44Zm4.66,1.45a.44.44,0,1,0,.3689.3689A.44.44,0,0,0,16.78,12.07Zm3.11,0a.44.44,0,1,0,.43.45q0-.01,0-.02a.43.43,0,0,0-.43-.43h0Zm9.34,0a.44.44,0,1,0,.43.45q0-.01,0-.02a.43.43,0,0,0-.43-.43h0Zm-3.11,0a.44.44,0,1,0,.43.45q0-.01,0-.02a.43.43,0,0,0-.43-.43h0Zm1.53-1.45a.44.44,0,0,0-.43.44.43.43,0,0,0,.86,0,.44.44,0,0,0-.44-.44h.01ZM22.8,16.75a.44.44,0,1,1-.45-.43q.01,0,.02,0a.43.43,0,0,1,.42.43Zm-3.55-.43a.43.43,0,1,0,.43.43.43.43,0,0,0-.43-.43h0Zm1.54-1.45a.43.43,0,1,0,.43.43.44.44,0,0,0-.44-.43Zm2.68.43a.43.43,0,0,0,.43.43h0a.45.45,0,0,0,.28-.1V15a.41.41,0,0,0-.28-.11.43.43,0,0,0-.44.41Zm-1.1,3.9a.44.44,0,1,0,.43.45v-.01a.44.44,0,0,0-.44-.44h.01Zm-3.12,0a.44.44,0,1,0,.43.45v-.01a.44.44,0,0,0-.44-.44h.01Zm1.54-1.44a.43.43,0,1,0,.43.43.44.44,0,0,0-.44-.43Zm2.68.43a.43.43,0,0,0,.43.43h0a.41.41,0,0,0,.28-.11v-.65a.45.45,0,0,0-.28-.1.43.43,0,0,0-.44.42v.01Zm-1.1,3.9a.5005.5005,0,1,0,.43.43.43.43,0,0,0-.43-.43h0Zm-3.12,0a.43.43,0,0,0-.43.43h0a.43.43,0,1,0,.43-.43h0Zm1.54-1.45a.44.44,0,1,0,.43.45v-.01a.44.44,0,0,0-.44-.44h.01Zm2.68.44a.43.43,0,0,0,.43.43h0a.46.46,0,0,0,.28-.11v-.65a.46.46,0,0,0-.28-.11.44.44,0,0,0-.44.44h.01ZM22.36,25a.43.43,0,1,0,.43.43A.44.44,0,0,0,22.36,25Zm-3.12,0a.43.43,0,1,0,.43.43.43.43,0,0,0-.43-.43Zm1.54-1.45a.43.43,0,1,0,.43.43.44.44,0,0,0-.43-.45h0Zm2.68.43a.43.43,0,0,0,.43.43h0a.45.45,0,0,0,.28-.1v-.65a.41.41,0,0,0-.28-.11.43.43,0,0,0-.43.43q0,.01,0,.02Zm-1.1,3.9a.44.44,0,1,0,.43.45v-.01a.44.44,0,0,0-.4194-.46l-.0106,0Zm-3.12,0a.44.44,0,1,0,.43.45v-.01a.44.44,0,0,0-.4194-.46l-.0106,0Zm1.54-1.44a.43.43,0,1,0,.43.43.44.44,0,0,0-.43-.45h0Zm2.68.43a.43.43,0,0,0,.43.43h0a.41.41,0,0,0,.28-.11v-.65a.45.45,0,0,0-.28-.1.43.43,0,0,0-.43.41Zm-1.1,3.9a.5005.5005,0,1,0,.43.43.43.43,0,0,0-.41-.45q-.01,0-.02,0Zm-3.12,0a.43.43,0,0,0-.43.43h0a.43.43,0,0,0,.86,0h0a.43.43,0,0,0-.41-.45q-.01,0-.02,0Zm1.54-1.45a.44.44,0,1,0,.43.45v-.01a.44.44,0,0,0-.4194-.46l-.0106,0Zm2.68.44a.43.43,0,0,0,.43.43h0a.46.46,0,0,0,.28-.11v-.65a.46.46,0,0,0-.28-.11.44.44,0,0,0-.43.42Z" fill="#004f71"/>
    <path d="M32.7,13.4H31.3V9.18a.64.64,0,0,0-.3-.53.63.63,0,0,0-.61,0l-7,3.51a3,3,0,0,0-4.74,0l-7-3.51a.63.63,0,0,0-.61,0,.65.65,0,0,0-.3.53V13.4H9.3a.63.63,0,0,0-.62.63v6.21a.62.62,0,0,0,.62.62h1v12a.63.63,0,0,0,.63.63H31.08a.63.63,0,0,0,.63-.63h0v-12h1a.62.62,0,0,0,.62-.62V14A.63.63,0,0,0,32.7,13.4Zm-2.65-3.2v3.2h-6.4l.28-.14Zm-9,2a1.74,1.74,0,0,1,1.2.49,1.76,1.76,0,0,1,.48.67H19.32a1.76,1.76,0,0,1,.48-.67,1.74,1.74,0,0,1,1.2-.46Zm-9.06-2,6.13,3.05.28.14H11.94Zm5.21,22H11.54V20.86h5.61Zm0-12.59H9.93v-5h7.22ZM23.6,32.2H18.4V20.86h5.2Zm0-12.6H18.4v-5h5.21Zm6.85,12.6h-5.6V20.86h5.61Zm1.61-12.59h-7.2v-5h7.21Z" fill="#004f71"/>
</svg>