<svg width="264" height="206" viewBox="0 0 264 206" fill="none" xmlns="http://www.w3.org/2000/svg">
<g clip-path="url(#clip0_9801_7602)">
<path d="M39.0979 60.5394L54.0457 62.7815L50.1997 67.3126L35.7658 65.1794L33.9596 67.3126L43.4109 75.3315L39.9543 79.3954L18.0464 60.8196L24.8196 52.8475C28.541 48.4721 33.072 48.3787 36.7 51.4617C39.5806 53.9063 40.5459 57.2073 39.1134 60.5549L39.0979 60.5394ZM33.2433 55.5256C31.4527 54.0153 29.8489 54.5291 28.5877 55.9928L25.24 59.9321L30.1759 64.1206L33.5236 60.1812C34.7692 58.7176 35.0184 57.036 33.2277 55.5256H33.2433Z" fill="#DC1E36"/>
<path d="M64.7116 20.2109L67.343 24.3683L56.8328 31.017L60.056 36.1085L68.4797 30.7678L71.1111 34.9252L62.6874 40.2659L66.9226 46.9613L77.7753 40.0946L80.4068 44.252L65.0541 53.9836L49.6859 29.7246L64.696 20.2109H64.7116Z" fill="#DC1E36"/>
<path d="M108.013 15.0569C106.238 12.5033 103.778 10.9618 99.9167 11.9272C95.6193 13.0016 92.7543 16.9254 94.3736 23.3716C95.993 29.8179 100.368 31.9355 104.666 30.8611C108.527 29.8957 109.975 27.3733 110.334 24.2903L115.285 24.3214C115.301 29.9891 111.906 34.1309 105.849 35.6413C98.8891 37.3852 91.4463 34.0064 89.1107 24.6951C86.7751 15.3839 91.7577 8.89095 98.7178 7.14704C104.759 5.63669 109.726 7.69201 112.373 12.6902L108.013 15.0413V15.0569Z" fill="#DC1E36"/>
<path d="M137.878 32.3719L132.553 32.2161L133.362 3.50391L138.688 3.65961L137.878 32.3719Z" fill="#DC1E36"/>
<path d="M162.48 24.7575L159.443 35.579L154.305 34.131L162.075 6.47754L172.507 9.40482C178.346 11.0397 180.152 15.4307 178.798 20.2575C177.443 25.0844 173.628 27.8872 167.774 26.2367L162.48 24.7575ZM173.581 18.7939C174.298 16.2715 173.223 14.73 170.981 14.0916L165.889 12.6591L163.819 20.0084L168.91 21.4409C171.168 22.0793 172.865 21.3163 173.581 18.7939Z" fill="#DC1E36"/>
<path d="M217.568 32.0294L214.859 36.14L204.474 29.3045L201.157 34.3338L209.487 39.8147L206.778 43.9253L198.448 38.4445L194.103 45.062L204.832 52.1155L202.122 56.2261L186.941 46.2454L202.73 22.2666L217.568 32.0294Z" fill="#DC1E36"/>
<path d="M237.078 62.2049C238.013 59.9939 237.935 58.4991 236.86 57.2067C235.864 56.0078 234.245 55.8054 233.077 56.7863C229.231 59.9939 237.608 68.9937 231.053 74.459C226.74 78.0558 221.819 77.3551 218.3 73.1355C214.953 69.1338 215.342 63.9021 218.129 60.3831L222.971 61.9558C221.165 64.5872 220.153 67.6702 222.146 70.0681C223.563 71.7652 225.385 72.2324 227.409 70.5352C231.068 67.4833 222.629 58.8572 229.62 53.0182C232.952 50.2311 237.732 50.5736 240.629 54.0303C243.073 56.9576 243.494 60.4143 241.936 63.7308L237.063 62.1893L237.078 62.2049Z" fill="#DC1E36"/>
<path d="M259.407 149.914C261.935 149.914 263.984 147.865 263.984 145.337C263.984 142.808 261.935 140.759 259.407 140.759C256.878 140.759 254.829 142.808 254.829 145.337C254.829 147.865 256.878 149.914 259.407 149.914Z" fill="#DC1E36"/>
<path d="M4.57776 149.914C7.10599 149.914 9.15553 147.865 9.15553 145.337C9.15553 142.808 7.10599 140.759 4.57776 140.759C2.04954 140.759 0 142.808 0 145.337C0 147.865 2.04954 149.914 4.57776 149.914Z" fill="#DC1E36"/>
<path fill-rule="evenodd" clip-rule="evenodd" d="M174.064 86.0442C177.334 92.1012 178.595 99.0457 177.661 105.866C178.611 106.379 179.202 107.36 179.218 108.435C179.451 132.6 160.05 152.375 135.885 152.593C111.719 152.827 91.9446 133.426 91.7266 109.26C88.8927 108.404 86.5883 106.317 85.436 103.577C83.007 97.4108 87.9429 93.7828 90.5899 91.8521L90.6211 91.8209L91.4152 91.2292C87.3824 88.1151 86.2301 81.9336 87.2111 77.2157C88.1142 72.9337 90.7301 70.0376 94.1867 69.4615C98.3129 68.8075 104.37 69.3525 107.904 72.996C110.411 75.7987 111.268 79.707 110.193 83.3038C109.929 84.1135 109.975 84.9698 110.287 85.7484C111.003 86.7293 113.806 87.0252 115.861 87.2431H115.923L116.25 87.2899C119.271 87.6636 122.385 88.0684 123.895 90.6531C125.795 93.7984 123.895 97.3485 122.354 100.276L122.229 100.494C121.684 101.444 121.217 102.44 120.828 103.468L121.171 103.561C122.868 100.961 125.25 98.8744 128.037 97.5042C129.19 88.5666 133.456 80.3298 140.105 74.2417C141.117 73.3697 142.565 73.2607 143.701 73.9303C149.976 78.1188 154.585 84.3782 156.75 91.6029C160.907 88.3642 165.671 85.9975 170.748 84.6273C172.024 84.347 173.348 84.9076 174.048 86.0131L174.064 86.0442ZM157.995 98.6253C155.753 100.805 153.931 103.374 152.592 106.193C152.296 106.847 152.032 107.469 151.798 108.139C152 108.855 152.156 109.587 152.281 110.319C152.281 110.397 152.281 110.49 152.281 110.568C152.374 111.315 152.436 112.063 152.436 112.826C152.436 113.931 152.312 115.021 152.078 116.111C152.763 116.033 153.402 115.94 154.04 115.846C154.305 115.815 154.57 115.769 154.834 115.737H155.192L162.137 100.058C162.557 99.0924 163.46 98.4229 164.504 98.3139C165.547 98.1893 166.575 98.6408 167.213 99.4972C167.836 100.338 167.96 101.459 167.54 102.425L162.277 114.32C164.893 113.682 167.447 112.763 169.876 111.611C172.398 105.118 172.351 97.8935 169.735 91.4316C165.36 92.9887 161.358 95.4489 157.98 98.6408L157.995 98.6253ZM142.456 80.6412C147.236 84.7363 150.459 90.3573 151.596 96.5544C150.303 98.0959 149.151 99.7464 148.155 101.49C147.485 100.743 146.769 100.042 145.975 99.4194L145.492 91.4628C145.461 90.6998 145.118 89.9836 144.542 89.4697C143.982 88.9559 143.219 88.6912 142.456 88.7224C140.852 88.8314 139.622 90.2171 139.715 91.8209L140.011 96.3831C138.563 95.9783 137.068 95.7758 135.558 95.7758H134.561C135.807 90.1237 138.532 84.9076 142.456 80.6568V80.6412ZM133.97 102.035C131.759 102.331 129.688 103.312 128.037 104.822C127.601 105.087 127.165 105.383 126.776 105.71C127.555 106.177 128.177 106.862 128.582 107.672C129.221 109.073 129.221 110.677 128.582 112.063C128.38 112.592 128.24 113.013 127.991 113.869C127.741 114.725 127.43 115.691 127.041 116.734C129.641 116.874 132.381 116.967 135.34 116.967C138.298 116.967 141.085 116.874 143.717 116.734L145.212 116.625C145.508 115.862 145.726 115.052 145.866 114.243C145.943 113.729 145.99 113.231 145.99 112.717C145.99 112.25 145.943 111.782 145.881 111.315V110.957C145.803 110.584 145.741 110.194 145.632 109.821V109.603C145.508 109.167 145.352 108.746 145.165 108.326L145.056 108.123C144.885 107.765 144.698 107.407 144.48 107.08V106.893C143.966 106.099 143.359 105.383 142.674 104.729C141.942 104.075 141.148 103.514 140.276 103.078C138.765 102.316 137.099 101.926 135.418 101.926C134.935 101.926 134.452 101.957 133.97 102.035ZM90.4653 101.693C89.6868 99.6996 90.6211 98.563 93.813 96.2897L94.031 96.1184C95.7749 94.7949 97.6278 93.3935 97.55 91.1202C97.4098 89.4853 96.4445 88.0372 94.9964 87.2899C92.9099 85.8729 91.7733 81.8868 92.4895 78.2745C92.6919 77.3247 93.3303 75.0513 95.0275 74.7711C98.0482 74.2728 102.112 74.7711 104.043 76.7485C105.257 78.2745 105.616 80.3142 104.977 82.1516C104.23 84.4716 104.572 87.0096 105.88 89.0649C108.029 92.0233 112.077 92.4282 115.347 92.6617C116.64 92.724 117.932 92.9576 119.162 93.3313C118.866 94.935 118.243 96.461 117.356 97.8312C115.83 100.712 113.93 104.293 116.546 106.847C117.247 107.563 118.088 108.139 119.022 108.528C119.941 108.886 120.875 109.198 121.84 109.462C122.556 109.634 123.242 109.867 123.927 110.132C123.677 110.77 123.444 111.518 123.195 112.359C122.806 113.713 122.323 115.037 121.731 116.329C119.645 116.111 117.683 115.846 115.861 115.551C115.659 115.192 115.378 114.881 115.036 114.647C112.903 113.199 108.076 100.712 104.93 89.968C104.65 89.0338 103.903 88.3331 102.969 88.0995C102.034 87.866 101.038 88.1618 100.368 88.8625C99.6987 89.5632 99.4652 90.5597 99.7299 91.4939C101.879 99.2014 104.681 106.706 108.107 113.931C106.425 113.495 104.79 112.966 103.171 112.343C103.732 110.085 102.626 107.75 100.524 106.753C99.0603 106.006 97.5344 105.398 95.9462 104.947C92.9722 104.044 91.1349 103.468 90.4653 101.662V101.693ZM155.146 140.495C155.13 140.635 155.099 140.791 155.052 140.931C159.521 138.221 163.398 134.64 166.434 130.389C166.201 130.467 165.952 130.529 165.703 130.529C164.519 130.498 163.569 129.549 163.554 128.365C163.538 127.182 164.441 126.201 165.625 126.123C166.808 126.061 167.82 126.933 167.945 128.1C168.817 126.652 169.595 125.142 170.265 123.601C169.813 123.024 169.704 122.246 169.969 121.561C170.234 120.876 170.825 120.377 171.542 120.237C171.915 119.007 172.258 117.839 172.538 116.64C170.234 117.777 167.82 118.68 165.329 119.35C163.819 119.801 162.153 120.175 160.471 120.518C161.218 121.016 161.592 121.919 161.405 122.791C161.234 123.678 160.533 124.364 159.661 124.535C158.789 124.706 157.886 124.332 157.388 123.585C156.89 122.838 156.905 121.857 157.403 121.125C157.185 121.172 156.968 121.203 156.734 121.249C155.722 121.436 154.71 121.608 153.667 121.748C152.701 121.888 151.72 122.012 150.708 122.121L149.587 122.246H148.684C148.637 123.367 147.765 124.286 146.644 124.364C145.523 124.441 144.527 123.663 144.324 122.557C144.106 122.557 143.873 122.588 143.655 122.604C142.316 122.682 140.961 122.76 139.622 122.76H135.76C135.558 123.756 134.67 124.473 133.658 124.473C132.646 124.473 131.759 123.756 131.556 122.76H131.338C128.972 122.682 126.542 122.542 124.129 122.37L123.179 122.277C123.07 123.414 122.12 124.301 120.968 124.301C119.816 124.301 118.866 123.429 118.757 122.277C118.742 122.121 118.742 121.95 118.757 121.794C118.524 121.763 118.29 121.748 118.056 121.717C117.06 121.608 116.079 121.499 115.145 121.343C110.115 120.658 105.18 119.381 100.462 117.528C99.7299 117.217 98.998 116.921 98.3597 116.578C99.0603 119.786 100.166 122.884 101.661 125.812L101.77 125.998C102.984 125.998 103.965 126.995 103.965 128.209C103.965 128.583 103.856 128.941 103.669 129.253C104.526 130.576 105.46 131.837 106.456 133.036C106.861 132.616 107.437 132.367 108.029 132.367C108.621 132.367 109.181 132.6 109.602 133.036C110.022 133.457 110.24 134.033 110.224 134.625C110.224 135.263 109.929 135.87 109.43 136.275C110.505 137.287 111.641 138.237 112.825 139.124C113.23 138.626 113.852 138.33 114.506 138.33C115.721 138.33 116.702 139.311 116.702 140.526C116.702 140.868 116.624 141.195 116.453 141.491C121.046 144.169 126.153 145.82 131.447 146.349C131.681 145.322 132.599 144.621 133.643 144.668C134.686 144.714 135.558 145.493 135.698 146.536C141.397 146.474 147.018 145.119 152.125 142.566C151.253 142.254 150.677 141.429 150.677 140.51C150.677 139.28 151.673 138.299 152.888 138.299C154.103 138.299 155.099 139.296 155.099 140.51L155.146 140.495Z" fill="#DC1E36"/>
<path d="M116.78 128.209C116.78 129.439 115.783 130.42 114.569 130.42C113.354 130.42 112.358 129.424 112.358 128.209C112.358 126.995 113.354 125.998 114.569 125.998C115.783 125.998 116.78 126.995 116.78 128.209Z" fill="#DC1E36"/>
<path d="M142.3 128.209C142.3 129.439 141.303 130.42 140.089 130.42C138.874 130.42 137.878 129.424 137.878 128.209C137.878 126.995 138.874 125.998 140.089 125.998C141.303 125.998 142.3 126.995 142.3 128.209Z" fill="#DC1E36"/>
<path d="M129.532 128.209C129.532 129.439 128.536 130.42 127.321 130.42C126.107 130.42 125.11 129.424 125.11 128.209C125.11 126.995 126.107 125.998 127.321 125.998C128.536 125.998 129.532 126.995 129.532 128.209Z" fill="#DC1E36"/>
<path d="M110.287 122.293C110.287 123.523 109.29 124.504 108.076 124.504C106.861 124.504 105.865 123.508 105.865 122.293C105.865 121.079 106.861 120.082 108.076 120.082C109.29 120.082 110.287 121.079 110.287 122.293Z" fill="#DC1E36"/>
<path d="M142.3 140.48C142.3 141.71 141.303 142.691 140.089 142.691C138.874 142.691 137.878 141.694 137.878 140.48C137.878 139.265 138.874 138.269 140.089 138.269C141.303 138.269 142.3 139.265 142.3 140.48Z" fill="#DC1E36"/>
<path d="M129.532 140.48C129.532 141.71 128.536 142.691 127.321 142.691C126.107 142.691 125.11 141.694 125.11 140.48C125.11 139.265 126.107 138.269 127.321 138.269C128.536 138.269 129.532 139.265 129.532 140.48Z" fill="#DC1E36"/>
<path d="M135.823 134.563C135.823 135.793 134.826 136.774 133.612 136.774C132.397 136.774 131.401 135.777 131.401 134.563C131.401 133.348 132.397 132.352 133.612 132.352C134.826 132.352 135.823 133.348 135.823 134.563Z" fill="#DC1E36"/>
<path d="M123.07 134.563C123.07 135.793 122.074 136.774 120.859 136.774C119.645 136.774 118.648 135.777 118.648 134.563C118.648 133.348 119.645 132.352 120.859 132.352C122.074 132.352 123.07 133.348 123.07 134.563Z" fill="#DC1E36"/>
<path d="M155.177 128.209C155.177 129.439 154.18 130.42 152.966 130.42C151.751 130.42 150.755 129.424 150.755 128.209C150.755 126.995 151.751 125.998 152.966 125.998C154.18 125.998 155.177 126.995 155.177 128.209Z" fill="#DC1E36"/>
<path d="M148.7 134.563C148.7 135.793 147.703 136.774 146.488 136.774C145.274 136.774 144.277 135.777 144.277 134.563C144.277 133.348 145.274 132.352 146.488 132.352C147.703 132.352 148.7 133.348 148.7 134.563Z" fill="#DC1E36"/>
<path d="M161.467 134.563C161.467 135.793 160.471 136.774 159.256 136.774C158.042 136.774 157.045 135.777 157.045 134.563C157.045 133.348 158.042 132.352 159.256 132.352C160.471 132.352 161.467 133.348 161.467 134.563Z" fill="#DC1E36"/>
<path d="M18.5446 185.229C21.4407 185.229 23.4182 186.739 23.4182 189.837C23.4182 191.223 22.811 192.422 21.7366 192.983C23.3404 193.637 24.2902 194.976 24.2902 197.156C24.2902 200.472 22.1414 202.294 18.6536 202.294H12.2852V185.229H18.529H18.5446ZM15.4772 188.156V191.862H18.3733C19.6346 191.862 20.3664 191.394 20.3664 190.009C20.3664 188.623 19.6346 188.156 18.2955 188.156H15.4616H15.4772ZM15.4772 194.789V199.367H18.3733C20.3508 199.367 21.1293 198.541 21.1293 197.078C21.1293 195.614 20.3508 194.789 18.3733 194.789H15.4772Z" fill="#DC1E36"/>
<path d="M31.7641 185.229L34.8626 191.862L37.9612 185.229H41.3712L36.4509 195.022V202.294H33.2744V195.022L28.3541 185.229H31.7641Z" fill="#DC1E36"/>
<path d="M68.1993 190.928C67.5454 189.199 66.3464 187.954 63.9797 187.954C61.3483 187.954 59.1217 189.807 59.1217 193.762C59.1217 197.717 61.3483 199.569 63.9797 199.569C66.3464 199.569 67.5454 198.324 68.1993 196.595L71.0488 197.327C70.2391 200.597 67.6855 202.497 63.9797 202.497C59.7134 202.497 55.9141 199.476 55.9141 193.777C55.9141 188.078 59.7134 185.058 63.9797 185.058C67.6855 185.058 70.2391 186.957 71.0488 190.227L68.1993 190.959V190.928Z" fill="#DC1E36"/>
<path d="M77.495 185.229H80.6714V191.706H87.4913V185.229H90.6677V202.294H87.4913V194.633H80.6714V202.294H77.495V185.229Z" fill="#DC1E36"/>
<path d="M100.976 202.294H97.7991V185.229H100.976V202.294Z" fill="#DC1E36"/>
<path d="M120.112 190.928C119.458 189.199 118.259 187.954 115.892 187.954C113.261 187.954 111.034 189.807 111.034 193.762C111.034 197.717 113.261 199.569 115.892 199.569C118.259 199.569 119.458 198.324 120.112 196.595L122.961 197.327C122.152 200.597 119.598 202.497 115.892 202.497C111.626 202.497 107.827 199.476 107.827 193.777C107.827 188.078 111.626 185.058 115.892 185.058C119.598 185.058 122.152 186.957 122.961 190.227L120.112 190.959V190.928Z" fill="#DC1E36"/>
<path d="M132.584 185.229V191.566L138.407 185.229H142.3L135.371 192.858L142.783 202.294H138.765L132.568 194.15V202.294H129.392V185.229H132.568H132.584Z" fill="#DC1E36"/>
<path d="M148.139 193.248H157.232V195.879H148.139V193.248Z" fill="#DC1E36"/>
<path d="M175.481 185.229V188.156H167.851V192.048H173.986V194.976H167.851V202.294H164.675V185.229H175.465H175.481Z" fill="#DC1E36"/>
<path d="M185.119 202.294H181.943V185.229H185.119V202.294Z" fill="#DC1E36"/>
<path d="M195.427 185.229V199.367H202.667V202.294H192.251V185.229H195.427Z" fill="#DC1E36"/>
<path d="M208.257 193.248H217.35V195.879H208.257V193.248Z" fill="#DC1E36"/>
<path d="M232.781 198.261H227.362L226.117 202.278H222.707L228.483 185.213H231.66L237.436 202.278H234.027L232.781 198.261ZM228.265 195.334H231.878L230.072 189.417L228.265 195.334Z" fill="#DC1E36"/>
<path d="M247.557 183.656C250.656 183.656 253.023 186.039 253.023 189.199C253.023 192.36 250.656 194.743 247.557 194.743C244.459 194.743 242.092 192.36 242.092 189.199C242.092 186.039 244.459 183.656 247.557 183.656ZM247.557 193.232C249.846 193.232 251.466 191.535 251.466 189.199C251.466 186.864 249.846 185.167 247.557 185.167C245.269 185.167 243.649 186.864 243.649 189.199C243.649 191.535 245.269 193.232 247.557 193.232ZM246.997 189.635H246.826V192.22H245.331V186.163H247.729C249.083 186.163 249.722 186.802 249.722 187.891C249.722 188.857 249.223 189.417 248.492 189.558L250.158 192.22H248.554L246.997 189.635ZM246.826 187.346V188.452H247.589C248.118 188.452 248.274 188.218 248.274 187.891C248.274 187.564 248.118 187.331 247.589 187.331H246.826V187.346Z" fill="#DC1E36"/>
</g>
<defs>
<clipPath id="clip0_9801_7602">
<rect width="264" height="198.961" fill="white" transform="translate(0 3.51953)"/>
</clipPath>
</defs>
</svg>
