<svg xmlns="http://www.w3.org/2000/svg" viewBox="0 0 50 50">
    <title>Profile Icon</title>
    <circle fill="#fff" cx="25" cy="25" r="22.875"/>
    <path fill="#004F71" d="M24.99,1A23.9761,23.9761,0,0,0,6.85,40.67a1.05,1.05,0,0,0,.22.261A23.9938,23.9938,0,1,0,24.99,1Zm0,45.121a21.054,21.054,0,0,1-15.311-6.6l.24-.66a4.29,4.29,0,0,1,2.481-2.54L19.679,33.5a3.7133,3.7133,0,0,0,2.361-3.449v-.22a3.6745,3.6745,0,0,0-.94-2.47l-3.14-3.51V20.92a1.8532,1.8532,0,0,0,1.679-1.839v-2.47a5.64,5.64,0,1,1,11.28,0V18.96a1.8408,1.8408,0,0,0,1.8,1.841v3.49l-2.939,2.93a3.7081,3.7081,0,0,0,1.2289,6.05L38.79,36.42a4.3109,4.3109,0,0,1,1.54,1.061l.92.99A21.1031,21.1031,0,0,1,24.99,46.121Zm17.45-10.6a7.1559,7.1559,0,0,0-2.57-1.771l-7.781-3.149a.8215.8215,0,0,1-.269-1.34l2.989-2.98a2.7227,2.7227,0,0,0,.791-1.92v-3.72a2.72,2.72,0,0,0-1.801-2.56v-1.47a8.52,8.52,0,1,0-17.04,0V18.25a2.7325,2.7325,0,0,0-1.679,2.511V23.92a2.7407,2.7407,0,0,0,.69,1.811l3.18,3.55a.7922.7922,0,0,1,.21.55v.22a.8278.8278,0,0,1-.521.77l-7.279,2.82a7.1455,7.1455,0,0,0-3.74,3.34A21.1156,21.1156,0,1,1,46.12,25a20.9455,20.9455,0,0,1-3.16,11.081Z"/>
</svg>