<svg xmlns="http://www.w3.org/2000/svg" viewBox="0 0 60 60">
    <title>Location Icon</title>
    <path d="M52.8987,27.4391H43.2561V21.6067H40.3628V19.1109h1.8546a1.0388,1.0388,0,0,0,0-2.0775H17.809a1.0388,1.0388,0,1,0,0,2.0775h1.8546v2.4958H16.77v5.8324H7.1013a1.0388,1.0388,0,0,0,0,2.0775H8.9835v13.45H51.0428v-13.45h1.8559a1.0388,1.0388,0,1,0,0-2.0775ZM21.7411,21.6067H38.2853V19.1109H21.7411Zm-4.9709,7.91v.4183c-.0139,0-.0249-.0069-.0374-.0069a.7507.7507,0,0,0,0,1.5014c.0125,0,.0235-.0069.0374-.0069v3.5207c-.0139,0-.0249-.0069-.0374-.0069a.7514.7514,0,0,0,0,1.5028c.0125,0,.0235-.0069.0374-.0083v3.5221c-.0139-.0014-.0249-.0083-.0374-.0083a.75.75,0,0,0-.7479.7521.7412.7412,0,0,0,.0374.1925H12.04a.6893.6893,0,0,0,.0388-.1925.75.75,0,0,0-.7493-.7521A.7218.7218,0,0,0,11.0611,40V36.385a.7493.7493,0,1,0,.2687-1.4487.7218.7218,0,0,0-.2687.0554V31.3753a.7209.7209,0,0,0,.2687.054.7508.7508,0,1,0-.2687-1.4474v-.4654Zm8.3434,11.3725H28.96V29.5166H25.1136Zm5.9252,0H34.885V29.5166H31.0388Zm10.14,0h-4.216v-13.45H23.0361v13.45H18.8477V23.6842H41.1786V40.8891Zm7.7867-10.9376a.7352.7352,0,0,0,0,1.4557V34.96a.7352.7352,0,0,0,0,1.4557v3.5526a.692.692,0,0,0-.5928.921H44.3891a.69.69,0,0,0,.04-.1925.7513.7513,0,0,0-.7493-.7521.7334.7334,0,0,0-.4238.1482V36.2894a.7251.7251,0,0,0,.4238.15.7514.7514,0,0,0,0-1.5028.7251.7251,0,0,0-.4238.15V31.2812a.7238.7238,0,0,0,.4238.1482.7507.7507,0,0,0,0-1.5014.7334.7334,0,0,0-.4238.1482v-.56h5.7091ZM13.9918,33.9281a.7514.7514,0,1,1,.7493-.7507.75.75,0,0,1-.7493.7507m32.3495,0a.7514.7514,0,1,1,.7493-.7507.75.75,0,0,1-.7493.7507M13.9918,38.9366a.7514.7514,0,1,1,.7493-.7507.75.75,0,0,1-.7493.7507m32.3495,0a.7514.7514,0,1,1,.7493-.7507.75.75,0,0,1-.7493.7507" fill="#004f71" fill-rule="evenodd"/>
</svg>
