<svg xmlns="http://www.w3.org/2000/svg" viewBox="0 0 60 60"><title>Artboard 1</title><path d="M30,42.4923a1.3619,1.3619,0,0,0-1.3813,1.343v.0717a1.3818,1.3818,0,0,0,2.7625,0v-.0717A1.3619,1.3619,0,0,0,30,42.4923M39.6569,44.5a3.0284,3.0284,0,0,1-3.0254,3.0246H23.3685A3.0284,3.0284,0,0,1,20.3431,44.5V15.5008a3.029,3.029,0,0,1,3.0254-3.0254H36.6315a3.029,3.029,0,0,1,3.0254,3.0254ZM36.6315,10.8822H23.3685A4.6228,4.6228,0,0,0,18.75,15.5008V44.5a4.6231,4.6231,0,0,0,4.6185,4.6177H36.6315A4.6236,4.6236,0,0,0,41.25,44.5V15.5008A4.6233,4.6233,0,0,0,36.6315,10.8822Zm.7142,6.483H22.6545a.7966.7966,0,0,0,0,1.5931H37.3457a.7966.7966,0,0,0,0-1.5931m0,22.2675H22.6545a.7966.7966,0,0,0,0,1.5931H37.3457a.7966.7966,0,0,0,0-1.5931M26.3664,21.5045a.6317.6317,0,1,0-.63-.6317.63.63,0,0,0,.63.6317m7.2679,0a.6317.6317,0,1,0-.63-.6317.63.63,0,0,0,.63.6317m-3.6344,0a.6317.6317,0,1,0-.6293-.6317A.63.63,0,0,0,30,21.5045m-7.2671,0a.6317.6317,0,1,0-.63-.6317.63.63,0,0,0,.63.6317m3.6336,3.3691a.6317.6317,0,1,0-.63-.6317.63.63,0,0,0,.63.6317m-3.6336,0a.6317.6317,0,1,0-.63-.6317.63.63,0,0,0,.63.6317m10.9015,0a.6317.6317,0,1,0-.63-.6317.63.63,0,0,0,.63.6317m-3.6344,0a.6317.6317,0,1,0-.6293-.6317A.63.63,0,0,0,30,24.8736m-5.4772-1.6889a.6317.6317,0,1,0-.6293-.6317.63.63,0,0,0,.6293.6317m7.2679,0a.6317.6317,0,1,0-.63-.6317.63.63,0,0,0,.63.6317m-3.6344,0a.6317.6317,0,1,0-.6293-.6317.63.63,0,0,0,.6293.6317m-1.79,5.0579a.6317.6317,0,1,0-.63-.6317.63.63,0,0,0,.63.6317m-3.6336,0a.6317.6317,0,1,0-.63-.6317.6306.6306,0,0,0,.63.6317m10.9015,0a.6317.6317,0,1,0-.63-.6317.6306.6306,0,0,0,.63.6317m-3.6344,0a.6317.6317,0,1,0-.6293-.6317A.6308.6308,0,0,0,30,28.2426m-5.4772-1.6888a.6317.6317,0,1,0-.6293-.6317.63.63,0,0,0,.6293.6317m7.2679,0a.6317.6317,0,1,0-.63-.6317.63.63,0,0,0,.63.6317m-3.6344,0a.6317.6317,0,1,0-.6293-.6317.63.63,0,0,0,.6293.6317m-1.79,5.0579a.6317.6317,0,1,0-.63-.6317.63.63,0,0,0,.63.6317m-3.6336,0a.6317.6317,0,1,0-.63-.6317.6306.6306,0,0,0,.63.6317m10.9015,0a.6317.6317,0,1,0-.63-.6317.6306.6306,0,0,0,.63.6317m-3.6344,0a.6317.6317,0,1,0-.6293-.6317A.6308.6308,0,0,0,30,31.6117m-5.4772-1.6888a.6317.6317,0,1,0-.6293-.6317.63.63,0,0,0,.6293.6317m7.2679,0a.6317.6317,0,1,0-.63-.6317.6306.6306,0,0,0,.63.6317m-3.6344,0a.6317.6317,0,1,0-.6293-.6317.6308.6308,0,0,0,.6293.6317m-1.79,5.0579a.6317.6317,0,1,0-.63-.6317.63.63,0,0,0,.63.6317m-3.6336,0a.6317.6317,0,1,0-.63-.6317.6306.6306,0,0,0,.63.6317m10.9015,0a.6317.6317,0,1,0-.63-.6317.6306.6306,0,0,0,.63.6317m-3.6344,0a.6317.6317,0,1,0-.6293-.6317A.6308.6308,0,0,0,30,34.9808M24.5228,33.292a.6317.6317,0,1,0-.6293-.6317.63.63,0,0,0,.6293.6317m7.2679,0a.6317.6317,0,1,0-.63-.6317.6306.6306,0,0,0,.63.6317m-3.6344,0a.6317.6317,0,1,0-.6293-.6317.6308.6308,0,0,0,.6293.6317m-1.79,5.0571a.6313.6313,0,1,0-.63-.6309.6294.6294,0,0,0,.63.6309m-3.6336,0a.6313.6313,0,1,0-.63-.6309.63.63,0,0,0,.63.6309m10.9015,0a.6313.6313,0,1,0-.63-.6309.63.63,0,0,0,.63.6309m-3.6344,0a.6313.6313,0,1,0-.6293-.6309A.63.63,0,0,0,30,38.3491m7.2672-16.8447a.6317.6317,0,1,0-.6293-.6317.63.63,0,0,0,.6293.6317m0,3.3691a.6317.6317,0,1,0-.6293-.6317.63.63,0,0,0,.6293.6317m0,3.369a.6317.6317,0,1,0-.6293-.6317.6308.6308,0,0,0,.6293.6317m0,3.3691a.6317.6317,0,1,0-.6293-.6317.6308.6308,0,0,0,.6293.6317m0,3.3691a.6317.6317,0,1,0-.6293-.6317.6308.6308,0,0,0,.6293.6317m0,3.3683a.6313.6313,0,1,0-.6293-.6309.63.63,0,0,0,.6293.6309m-12.7444-1.688a.6317.6317,0,1,0-.6293-.6317.63.63,0,0,0,.6293.6317m7.2679,0a.6317.6317,0,1,0-.63-.6317.6306.6306,0,0,0,.63.6317m-3.6344,0a.6317.6317,0,1,0-.6293-.6317.6308.6308,0,0,0,.6293.6317m7.2944-13.4764a.6317.6317,0,1,0-.6293-.6317.63.63,0,0,0,.6293.6317m0,3.3691a.6317.6317,0,1,0-.6293-.6317.63.63,0,0,0,.6293.6317m0,3.3691a.6317.6317,0,1,0-.6293-.6317.63.63,0,0,0,.6293.6317m0,3.3691a.6317.6317,0,1,0-.6293-.6317.63.63,0,0,0,.6293.6317m0,3.3691a.6317.6317,0,1,0-.6293-.6317.63.63,0,0,0,.6293.6317" fill="#004f71"/></svg>