<svg xmlns="http://www.w3.org/2000/svg" viewBox="0 0 60 60">
    <title>Pickup colored Icon</title><path d="M40.5257,16.1945l2.4408,27.84H34.9578l2.3645-27.9161Z" fill="#ffb549"/><path d="M23.9744,15.9657a3.5008,3.5008,0,0,0,3.6611,3.4323,3.7037,3.7037,0,0,0,3.89-3.28h5.7968l-2.67,27.9161H16.9572L19.0929,16.042Z" fill="#fff"/><path d="M41.3866,15.1667H30.9361v.852a2.9515,2.9515,0,0,1-5.9029,0h0v-.852H18.5191L16.1447,44.8333H43.8553ZM17.9909,43.1293l2.1017-26.2586h3.315a4.656,4.656,0,0,0,9.1543,0h3.9762L34.1852,43.1293Zm17.9052,0,.6476-7.2287a.6077.6077,0,0,0,.5191.3067.6164.6164,0,0,0,0-1.2326.6013.6013,0,0,0-.4544.2124l.2794-3.1241a.5719.5719,0,0,0,.1749.0366.6164.6164,0,0,0,0-1.2326c-.0239,0-.0458.0113-.0693.0136l.2624-2.9289a.6034.6034,0,0,0,.1-1.1088l.893-9.9722h.4295a.6089.6089,0,1,0,1.1656.3112l1.16,13.9484a.5919.5919,0,0,0,.067.7952l.2556,3.0832a.6046.6046,0,0,0,.0989,1.1849l.2431,2.9241a.63.63,0,0,0-.1739-.0352.6164.6164,0,0,0,0,1.2326.5938.5938,0,0,0,.2681-.0682l.24,2.8821Zm3.35-22.5379a.6164.6164,0,1,1-.6146.6181v-.0024a.6143.6143,0,0,1,.613-.6157h.0011M39.2465,24.7a.6157.6157,0,1,1-.6146.6168v-.0007a.6144.6144,0,0,1,.613-.6161h.0011m.0006,4.1083a.6157.6157,0,1,1-.6146.6168v-.0011a.6143.6143,0,0,1,.613-.6157h.0011m.0006,4.1082a.6157.6157,0,1,1-.6146.6168v-.0007a.6144.6144,0,0,1,.613-.6161h.0011m-2.1828,6.1673a.6157.6157,0,1,1-.6132.6182V39.699a.6153.6153,0,0,1,.6132-.6157m2.1834-2.0594a.6157.6157,0,1,1-.6146.6168V37.64a.6144.6144,0,0,1,.613-.6161h.0016m0,4.1076a.6164.6164,0,1,1-.6146.6181v-.0024a.6143.6143,0,0,1,.613-.6157h.0016" fill="#004f71"/><path d="M26.566,29.9466l2.3429-3.068a1.3729,1.3729,0,0,1,2.1823,1.6665l-3.4947,4.5764a1.3729,1.3729,0,0,1-2.224-.0576l-1.997-2.9168a1.3729,1.3729,0,1,1,2.2657-1.5512Z" fill="#ffb549"/>
</svg>