<svg xmlns="http://www.w3.org/2000/svg" viewBox="0 0 60 60">
    <title>Pickup Icon</title>
    <path d="M49.2584,34.1457v9.8788a.8186.8186,0,0,1-1.6371,0v-9.07H45.6521v9.07a.8187.8187,0,0,1-1.6372,0V34.1457a.8141.8141,0,0,1,.8186-.8088H48.44A.8141.8141,0,0,1,49.2584,34.1457Zm-5.2933-14.644a2.6727,2.6727,0,1,1,2.6732,2.6412A2.66,2.66,0,0,1,43.9651,19.5016Zm1.6371,0a1.0354,1.0354,0,1,0,1.036-1.0236A1.0309,1.0309,0,0,0,45.6023,19.5016ZM7.8669,37.5736V33.2741a2.6943,2.6943,0,0,1,2.7078-2.6748H11.817l2.5573-6.3053a.8177.8177,0,0,1,.76-.5079H25.818a.8193.8193,0,0,1,.76.5079l2.5573,6.3053h1.2436a2.6936,2.6936,0,0,1,2.7065,2.6748v4.2995a2.694,2.694,0,0,1-2.7065,2.6748h-.87V42.69a2.1687,2.1687,0,0,1-4.3372,0V40.2484H15.7809V42.69a2.1687,2.1687,0,0,1-4.3372,0V40.2484h-.869A2.6947,2.6947,0,0,1,7.8669,37.5736Zm6.2769,2.6748H13.0809V42.69a.5315.5315,0,0,0,1.0629,0Zm13.7286,0H26.8094V42.69a.5315.5315,0,0,0,1.0629,0Zm-14.2911-9.65h13.79l-2.1067-5.1943H15.6879ZM9.504,37.5736a1.0659,1.0659,0,0,0,1.0707,1.0573H12.259l.0033-.0007h2.7l.0032.0007h11.022l.0033-.0007h2.7l.0032.0007h1.685a1.0648,1.0648,0,0,0,1.0694-1.0573V33.2741a1.0644,1.0644,0,0,0-1.0694-1.0573H10.5747A1.0655,1.0655,0,0,0,9.504,33.2741ZM27.34,37.0449a1.6216,1.6216,0,1,0-1.6411-1.6215A1.6336,1.6336,0,0,0,27.34,37.0449Zm-13.7272,0a1.6216,1.6216,0,1,0-1.6424-1.6215A1.6331,1.6331,0,0,0,13.613,37.0449Zm23.2244-9.1279h4.2874A1.7652,1.7652,0,0,0,42.8295,26.58a2.0552,2.0552,0,0,1,1.9855-1.5031H48.44a2.0463,2.0463,0,0,1,2.0563,2.0317V34.146a.8186.8186,0,0,0,1.6371,0V27.1089a3.6766,3.6766,0,0,0-3.69-3.6492H44.815A3.6912,3.6912,0,0,0,41.2487,26.16c-.0138.0485-.0557.1391-.1238.1391H36.8375a.8089.8089,0,1,0,0,1.6176Zm-1.5656,8.0483a.8007.8007,0,0,1-.1978-.6354l.6785-5.35a.8149.8149,0,0,1,.812-.7085h2.5206a.8149.8149,0,0,1,.8121.7085l.6784,5.35a.7987.7987,0,0,1-.1984.6354.8227.8227,0,0,1-.6136.2737H35.8861A.8251.8251,0,0,1,35.2719,35.9654Zm1.5415-1.3439h2.0229l-.4741-3.7321H37.2875Z" fill="#004f71"/>
</svg>
