<?xml version="1.0" encoding="UTF-8"?>
<svg width="40px" height="41px" viewBox="0 0 40 41" version="1.1" xmlns="http://www.w3.org/2000/svg" xmlns:xlink="http://www.w3.org/1999/xlink">
    <title>ICON_Available_First100</title>
    <g id="UPLOAD/DOC/FIRST-100" stroke="none" stroke-width="1" fill="none" fill-rule="evenodd">
        <g id="First-100" transform="translate(-20.000000, -128.000000)" fill-rule="nonzero">
            <g transform="translate(0.000000, 101.000000)" id="ICON_Available_First100">
                <g transform="translate(20.000000, 27.000000)">
                    <path d="M30.77,15.44 L30,14.73 C29.5904814,14.3187571 29.4305145,13.7207854 29.58,13.16 L29.85,12.16 C29.9749695,11.7433616 29.9237919,11.2937158 29.70839,10.9158177 C29.492988,10.5379196 29.1321713,10.2647681 28.71,10.16 L27.71,9.9 C27.1490098,9.75901905 26.710981,9.32099018 26.57,8.76 L26.31,7.76 C26.2026962,7.33939046 25.9291006,6.98043078 25.5519807,6.76547245 C25.1748608,6.55051411 24.7265867,6.49800803 24.31,6.62 L23.31,6.89 C22.7510423,7.04852441 22.1500759,6.89158414 21.74,6.48 L21.03,5.75 C20.7279406,5.44711215 20.3177627,5.2768817 19.89,5.2768817 C19.4622373,5.2768817 19.0520594,5.44711215 18.75,5.75 L18.04,6.48 C17.6753602,6.89320002 17.1237429,7.08966647 16.58,7 L15.58,6.73 C15.1634133,6.60800803 14.7151392,6.66051411 14.3380193,6.87547245 C13.9608994,7.09043078 13.6873038,7.44939046 13.58,7.87 L13.32,8.87 C13.1846138,9.41433626 12.7691057,9.84509236 12.23,10 L11.23,10.26 C10.8078287,10.3647681 10.447012,10.6379196 10.23161,11.0158177 C10.0162081,11.3937158 9.96503045,11.8433616 10.09,12.26 L10.36,13.26 C10.4885411,13.7793869 10.3539946,14.3287851 10,14.73 L9.27,15.44 C8.96711215,15.7420594 8.7968817,16.1522373 8.7968817,16.58 C8.7968817,17.0077627 8.96711215,17.4179406 9.27,17.72 L10,18.43 C10.3953058,18.8493581 10.5397858,19.4462885 10.38,20 L10.11,21 C9.98800803,21.4165867 10.0405141,21.8648608 10.2554724,22.2419807 C10.4704308,22.6191006 10.8293905,22.8926962 11.25,23 L12.25,23.25 C12.8102461,23.3985526 13.246346,23.8384779 13.39,24.4 L13.65,25.4 C13.8280272,26.0748134 14.4229083,26.5563838 15.12,26.59 L15.12,35.99 C15.1199189,36.0943194 15.1778382,36.1900342 15.2702887,36.2383607 C15.3627393,36.2866871 15.4743901,36.2796112 15.56,36.22 L20.07,33.01 L24.58,36.22 C24.6656099,36.2796112 24.7772607,36.2866871 24.8697113,36.2383607 C24.9621618,36.1900342 25.0200811,36.0943194 25.02,35.99 L25.02,26.59 C25.6780084,26.512985 26.2216656,26.0407573 26.39,25.4 L26.65,24.4 C26.793654,23.8384779 27.2297539,23.3985526 27.79,23.25 L28.79,23 C29.2106095,22.8926962 29.5695692,22.6191006 29.7845276,22.2419807 C29.9994859,21.8648608 30.051992,21.4165867 29.93,21 L29.66,20 C29.4896854,19.4532754 29.6187548,18.8572785 30,18.43 L30.73,17.72 C31.0382475,17.423288 31.2157164,17.0160851 31.2232214,16.5883021 C31.2307264,16.1605192 31.0676501,15.7473418 30.77,15.44 Z" id="Shape" fill="#FA9370"></path>
                    <circle id="Oval" fill="#FFFFFF" cx="20.05" cy="17.02" r="6.7"></circle>
                    <polygon id="Shape" fill="#004F71" points="16.95 15.52 15.91 16.31 15.93 17.34 16.59 16.82 16.65 19.6 17.5 19.5 17.41 15.46"></polygon>
                    <path d="M19.44,15.17 C18.53,15.28 18.04,16.11 18.07,17.41 C18.1,18.71 18.62,19.41 19.52,19.31 C20.42,19.21 20.92,18.36 20.89,17.07 C20.86,15.78 20.34,15.07 19.44,15.17 Z M19.51,18.47 C19.12,18.52 18.9,18.1 18.88,17.31 C18.86,16.52 19.07,16.05 19.45,16 C19.83,15.95 20.06,16.38 20.08,17.17 C20.1,17.96 19.89,18.43 19.51,18.47 Z" id="Shape" fill="#004F71"></path>
                    <path d="M22.79,14.77 C21.88,14.88 21.39,15.77 21.42,17.01 C21.45,18.25 21.97,19.01 22.87,18.91 C23.77,18.81 24.27,17.97 24.24,16.67 C24.21,15.37 23.69,14.67 22.79,14.77 Z M22.86,18.08 C22.47,18.08 22.25,17.7 22.23,16.91 C22.21,16.12 22.42,15.65 22.8,15.61 C23.18,15.57 23.41,15.98 23.43,16.77 C23.45,17.56 23.24,18 22.86,18.08 Z" id="Shape" fill="#004F71"></path>
                    <path d="M20.05,9.7 C17.0875187,9.7 14.4171245,11.4856435 13.2853095,14.2233963 C12.1534944,16.961149 12.783437,20.1111745 14.8810913,22.2030975 C16.9787455,24.2950205 20.1304828,24.9163423 22.8651287,23.7770411 C25.5997745,22.6377399 27.3780942,19.9624702 27.3700275,17 C27.3589756,12.9650883 24.0849267,9.7 20.05,9.7 Z M20.05,23.09 C16.7002391,23.09 13.9837035,20.3764036 13.9800329,17.0266447 C13.9763697,13.6768858 16.6869577,10.9573666 20.0367106,10.9499997 C23.3864635,10.9426626 26.1089629,13.6502572 26.120033,17 C26.1253158,18.6133266 25.4881472,20.1623978 24.3492247,21.3050729 C23.2103022,22.447748 21.6633353,23.09 20.05,23.09 Z" id="Shape" fill="#004F71"></path>
                    <path d="M31.21,18.16 C31.6324322,17.7427814 31.8700001,17.1737342 31.8700001,16.58 C31.8668338,15.9869321 31.6296376,15.4190989 31.21,15 L30.48,14.29 C30.2361531,14.0389069 30.1413346,13.6785964 30.23,13.34 L30.5,12.34 C30.6553087,11.7657038 30.5747006,11.1531578 30.2761031,10.6385935 C29.9775055,10.1240291 29.4856766,9.75011132 28.91,9.6 L27.91,9.35 C27.5694383,9.25662893 27.3033711,8.99056173 27.21,8.65 L26.95,7.65 C26.8131808,7.07802907 26.4530497,6.58464942 25.95,6.28 C25.4329165,5.97928616 24.8163614,5.89996329 24.24,6.06 L23.24,6.33 C22.9014036,6.41866542 22.5410931,6.32384686 22.29,6.08 L21.57,5.35 C20.6874603,4.50170152 19.2925397,4.50170152 18.41,5.35 L17.69,6.08 C17.4389069,6.32384686 17.0785964,6.41866542 16.74,6.33 L15.74,6.06 C15.1668955,5.90047205 14.5536152,5.97983773 14.04,6.28 C13.5221083,6.58640268 13.1477932,7.08668912 13,7.67 L12.75,8.67 C12.6566289,9.01056173 12.3905617,9.27662893 12.05,9.37 L11.05,9.62 C10.4720809,9.76996789 9.97843637,10.1454219 9.67958398,10.6623049 C9.38073159,11.179188 9.30163413,11.7943255 9.46,12.37 L9.73,13.37 C9.81866542,13.7085964 9.72384686,14.0689069 9.48,14.32 L8.8,15 C8.37427685,15.4175055 8.13440503,15.988719 8.13440503,16.585 C8.13440503,17.181281 8.37427685,17.7524945 8.8,18.17 L9.53,18.89 C9.77384686,19.1410931 9.86866542,19.5014036 9.78,19.84 L9.51,20.84 C9.35185367,21.4143919 9.43121154,22.0282439 9.73023036,22.5435342 C10.0292492,23.0588245 10.5228324,23.4323049 11.1,23.58 L12.1,23.84 C12.4405617,23.9333711 12.7066289,24.1994383 12.8,24.54 L13.05,25.54 C13.2049546,26.1176022 13.5825251,26.6102418 14.1,26.91 C14.2285464,26.980116 14.3622701,27.0402917 14.5,27.09 L14.5,35.97 C14.4951992,36.3109236 14.6834635,36.6252884 14.9862781,36.7819896 C15.2890927,36.9386909 15.6544581,36.9108198 15.93,36.71 L20.08,33.76 L24.23,36.71 C24.3820848,36.8180848 24.5634384,36.8773735 24.75,36.88 C24.8960399,36.8812376 25.0401873,36.8469168 25.17,36.78 C25.4703747,36.6211969 25.6587703,36.3097674 25.66,35.97 L25.66,27 L25.97,26.86 C26.4730497,26.5553506 26.8331808,26.0619709 26.97,25.49 L27.23,24.49 C27.3233711,24.1494383 27.5894383,23.8833711 27.93,23.79 L28.93,23.53 C29.5071676,23.3823049 30.0007508,23.0088245 30.2997696,22.4935342 C30.5987885,21.9782439 30.6781463,21.3643919 30.52,20.79 L30.25,19.79 C30.1613346,19.4514036 30.2561531,19.0910931 30.5,18.84 L31.21,18.16 Z M24.38,35.25 L20.38,32.44 C20.1666667,32.28 19.8733333,32.28 19.66,32.44 L15.66,35.25 L15.66,27.08 L15.71,27.08 L16.71,26.81 C17.0485964,26.7213346 17.4089069,26.8161531 17.66,27.06 L18.38,27.78 C18.794397,28.2076928 19.3644784,28.4491179 19.96,28.4491179 C20.5555216,28.4491179 21.125603,28.2076928 21.54,27.78 L22.26,27.06 C22.5110931,26.8161531 22.8714036,26.7213346 23.21,26.81 L24.21,27.08 L24.36,27.08 L24.38,35.25 Z M29.6,18 C29.0263309,18.5598381 28.7972602,19.3844928 29,20.16 L29.27,21.16 C29.3392077,21.4121519 29.3069002,21.681381 29.18,21.91 C29.045954,22.1321598 28.8308063,22.2935206 28.58,22.36 L27.58,22.62 C26.8109688,22.8240013 26.2088798,23.4222795 26,24.19 L25.75,25.19 C25.6787793,25.4387761 25.513895,25.6502581 25.29,25.78 C25.0650452,25.9169205 24.7929705,25.9531971 24.54,25.88 L23.54,25.61 C22.7649985,25.3983333 21.9360489,25.6198958 21.37,26.19 L20.65,26.92 C20.2637017,27.2882542 19.6562983,27.2882542 19.27,26.92 L18.55,26.19 C18.1430241,25.7693803 17.5852196,25.5282648 17,25.52 C16.8007214,25.5213258 16.6024363,25.548212 16.41,25.6 L15.41,25.87 C15.1570295,25.9431971 14.8849548,25.9069205 14.66,25.77 C14.436105,25.6402581 14.2712207,25.4287761 14.2,25.18 L13.95,24.18 C13.7493884,23.3998303 13.1401697,22.7906116 12.36,22.59 L11.36,22.33 C11.1091937,22.2635206 10.894046,22.1021598 10.76,21.88 C10.6330998,21.651381 10.6007923,21.3821519 10.67,21.13 L10.94,20.13 C11.1465769,19.374436 10.9415927,18.5658872 10.4,18 L9.67,17.28 C9.48765924,17.0962113 9.38370344,16.8488682 9.38,16.59 C9.38110462,16.3276601 9.48525584,16.0762606 9.67,15.89 L10.4,15.18 C10.9771098,14.6138893 11.2061559,13.7816885 11,13 L10.73,12 C10.6607923,11.7478481 10.6930998,11.478619 10.82,11.25 C10.9520972,11.0240574 11.1675096,10.8589079 11.42,10.79 L12.42,10.54 C13.1804899,10.3396219 13.7801913,9.75510287 14,9 L14.25,8 C14.3189079,7.74750959 14.4840574,7.53209715 14.71,7.4 C14.938619,7.27309983 15.2078481,7.24079233 15.46,7.31 L16.46,7.58 C17.2226185,7.77839682 18.0332561,7.55765982 18.59,7 L19.31,6.28 C19.6962983,5.91174582 20.3037017,5.91174582 20.69,6.28 L21.41,7 C21.9717273,7.5774871 22.8031967,7.80355482 23.58,7.59 L24.58,7.32 C24.8321519,7.25079233 25.101381,7.28309983 25.33,7.41 C25.5559426,7.54209715 25.7210921,7.75750959 25.79,8.01 L26,9 C26.2063229,9.77689569 26.8131043,10.3836771 27.59,10.59 L28.59,10.84 C28.8424904,10.9089079 29.0579028,11.0740574 29.19,11.3 C29.3169002,11.528619 29.3492077,11.7978481 29.28,12.05 L29,13 C28.7887826,13.7780987 29.010044,14.6097365 29.58,15.18 L30.31,15.89 C30.4947442,16.0762606 30.5988954,16.3276601 30.6000633,16.59 C30.6030167,16.8502277 30.4980144,17.1000607 30.31,17.28 L29.6,18 Z" id="Shape" fill="#004F71"></path>
                    <path d="M18.55,28.8 C18.55,28.9536242 18.4680425,29.0955788 18.335,29.172391 C18.2019575,29.2492031 18.0380425,29.2492031 17.905,29.172391 C17.7719575,29.0955788 17.69,28.9536242 17.69,28.8 C17.69,28.5625176 17.8825176,28.37 18.12,28.37 C18.3574824,28.37 18.55,28.5625176 18.55,28.8 L18.55,28.8 Z M16.55,26.92 C16.3109087,26.9254353 16.1199382,27.120847 16.12,27.36 C16.12,27.5974824 16.3125176,27.79 16.55,27.79 C16.7874824,27.79 16.98,27.5974824 16.98,27.36 C16.98,27.2433047 16.933643,27.131389 16.851127,27.048873 C16.768611,26.966357 16.6566953,26.92 16.54,26.92 L16.55,26.92 Z M21.2,28.37 C20.9625176,28.37 20.77,28.5625176 20.77,28.8 C20.7439752,28.9711541 20.8207338,29.1416624 20.9661196,29.2356518 C21.1115054,29.3296411 21.2984946,29.3296411 21.4438804,29.2356518 C21.5892662,29.1416624 21.6660248,28.9711541 21.64,28.8 C21.6373778,28.6832948 21.5884865,28.5724149 21.5040884,28.4917679 C21.4196904,28.4111209 21.3067038,28.3673175 21.19,28.37 L21.2,28.37 Z M24.32,28.37 C24.0825176,28.37 23.89,28.5625176 23.89,28.8 C23.89,29.0374824 24.0825176,29.23 24.32,29.23 C24.5574824,29.23 24.75,29.0374824 24.75,28.8 C24.7500313,28.684203 24.7033577,28.5732876 24.6205412,28.4923532 C24.5377246,28.4114188 24.4257657,28.367307 24.31,28.37 L24.32,28.37 Z M22.74,26.92 C22.5009087,26.9254353 22.3099382,27.120847 22.31,27.36 C22.31,27.5974824 22.5025176,27.79 22.74,27.79 C22.9774824,27.79 23.17,27.5974824 23.17,27.36 C23.17,27.2433047 23.123643,27.131389 23.041127,27.048873 C22.958611,26.966357 22.8466953,26.92 22.73,26.92 L22.74,26.92 Z M18.13,31.26 C17.8925176,31.26 17.7,31.4525176 17.7,31.69 C17.7,31.9274824 17.8925176,32.12 18.13,32.12 C18.3674824,32.12 18.56,31.9274824 18.56,31.69 C18.5600313,31.574203 18.5133577,31.4632876 18.4305412,31.3823532 C18.3477246,31.3014188 18.2357657,31.257307 18.12,31.26 L18.13,31.26 Z M16.55,29.81 C16.3125176,29.81 16.12,30.0025176 16.12,30.24 C16.12,30.4774824 16.3125176,30.67 16.55,30.67 C16.7874824,30.67 16.98,30.4774824 16.98,30.24 C16.9800313,30.124203 16.9333577,30.0132876 16.8505412,29.9323532 C16.7677246,29.8514188 16.6557657,29.807307 16.54,29.81 L16.55,29.81 Z M21.2,31.26 C20.9638974,31.2654923 20.7764107,31.4603735 20.7800511,31.696512 C20.7836915,31.9326504 20.9770964,32.1216597 21.2132561,32.1198714 C21.4494158,32.1180831 21.6399361,31.9261665 21.64,31.69 C21.6401273,31.5724056 21.5920888,31.4598897 21.5070691,31.3786486 C21.4220494,31.2974076 21.3074672,31.2545304 21.19,31.26 L21.2,31.26 Z M24.32,31.26 C24.0825176,31.26 23.89,31.4525176 23.89,31.69 C23.89,31.9274824 24.0825176,32.12 24.32,32.12 C24.5574824,32.12 24.75,31.9274824 24.75,31.69 C24.7500313,31.574203 24.7033577,31.4632876 24.6205412,31.3823532 C24.5377246,31.3014188 24.4257657,31.257307 24.31,31.26 L24.32,31.26 Z M19.62,29.81 C19.3825176,29.81 19.19,30.0025176 19.19,30.24 C19.1639752,30.4111541 19.2407338,30.5816624 19.3861196,30.6756518 C19.5315054,30.7696411 19.7184946,30.7696411 19.8638804,30.6756518 C20.0092662,30.5816624 20.0860248,30.4111541 20.06,30.24 C20.0573778,30.1232948 20.0084865,30.0124149 19.9240884,29.9317679 C19.8396904,29.8511209 19.7267038,29.8073175 19.61,29.81 L19.62,29.81 Z M22.74,29.81 C22.5025176,29.81 22.31,30.0025176 22.31,30.24 C22.31,30.4774824 22.5025176,30.67 22.74,30.67 C22.9774824,30.67 23.17,30.4774824 23.17,30.24 C23.1700313,30.124203 23.1233577,30.0132876 23.0405412,29.9323532 C22.9577246,29.8514188 22.8457657,29.807307 22.73,29.81 L22.74,29.81 Z M16.54,32.7 C16.3660812,32.7 16.2092876,32.8047661 16.1427318,32.9654461 C16.076176,33.1261261 16.1129649,33.3110768 16.2359441,33.4340559 C16.3589232,33.5570351 16.5438739,33.593824 16.7045539,33.5272682 C16.8652339,33.4607124 16.97,33.3039188 16.97,33.13 C16.97,32.8925176 16.7774824,32.7 16.54,32.7 L16.54,32.7 Z M24.31,34.14 C24.0709087,34.1454353 23.8799382,34.340847 23.88,34.58 C23.88,34.8174824 24.0725176,35.01 24.31,35.01 C24.5474824,35.01 24.74,34.8174824 24.74,34.58 C24.7400618,34.340847 24.5490913,34.1454353 24.31,34.14 Z M22.73,32.7 C22.5560812,32.7 22.3992876,32.8047661 22.3327318,32.9654461 C22.266176,33.1261261 22.3029649,33.3110768 22.4259441,33.4340559 C22.5489232,33.5570351 22.7338739,33.593824 22.8945539,33.5272682 C23.0552339,33.4607124 23.16,33.3039188 23.16,33.13 C23.16,32.8925176 22.9674824,32.7 22.73,32.7 L22.73,32.7 Z" id="Shape" fill="#004F71"></path>
                </g>
            </g>
        </g>
    </g>
</svg>