<?xml version="1.0" encoding="utf-8"?>
<!-- Generator: Adobe Illustrator 22.0.1, SVG Export Plug-In . SVG Version: 6.00 Build 0)  -->
<!DOCTYPE svg PUBLIC "-//W3C//DTD SVG 1.1//EN" "http://www.w3.org/Graphics/SVG/1.1/DTD/svg11.dtd">
<svg version="1.1" id="Layer_2" xmlns="http://www.w3.org/2000/svg" xmlns:xlink="http://www.w3.org/1999/xlink" x="0px" y="0px"
	 viewBox="0 0 42 42" enable-background="new 0 0 42 42" xml:space="preserve">
<path id="Fill-3" fill="#F2676C" d="M18.9398,24.1325c0,1.187,1.4579,2.1489,3.2558,2.1489c1.7982,0,3.2558-0.9619,3.2558-2.1489
	c0-1.1867-1.4576-2.1489-3.2558-2.1489C20.3977,21.9836,18.9398,22.9458,18.9398,24.1325"/>
<path fill="#004F71" d="M21.0129,16.7041c2.39,0,4.3348-1.9444,4.3348-4.3344c0-2.3903-1.9448-4.3344-4.3348-4.3344
	c-2.39,0-4.3348,1.9441-4.3348,4.3344C16.6781,14.7597,18.6228,16.7041,21.0129,16.7041z M21.0129,9.5131
	c1.5751,0,2.8569,1.2812,2.8569,2.8566c0,1.5751-1.2818,2.8566-2.8569,2.8566c-1.5754,0-2.8569-1.2815-2.8569-2.8566
	C18.156,10.7943,19.4375,9.5131,21.0129,9.5131z M27.5,23.1544v10.0713c0,0.408-0.3311,0.7391-0.7391,0.7391
	c-0.4076,0-0.7388-0.3311-0.7388-0.7391V31.502c-0.0345,0.0058-0.0657,0.0203-0.1019,0.0203c-0.3342,0-0.6047-0.2706-0.6047-0.6044
	c0-0.3338,0.2705-0.6047,0.6047-0.6047c0.0362,0,0.0674,0.0145,0.1019,0.0207v-2.3216c-0.0345,0.0058-0.0657,0.0203-0.1019,0.0203
	c-0.3342,0-0.6047-0.2702-0.6047-0.6043c0-0.3338,0.2705-0.6047,0.6047-0.6047c0.0362,0,0.0674,0.0146,0.1019,0.0207v-3.6898
	c0-1.9695-1.6025-3.5723-3.5723-3.5723h-2.8992c-1.9702,0-3.5726,1.6028-3.5726,3.5723v0.4083
	c0.2763,0.0559,0.4886,0.2885,0.4886,0.581c0,0.2928-0.2123,0.5255-0.4886,0.5813v2.1219c0.2763,0.0562,0.4886,0.2888,0.4886,0.5814
	c0,0.2929-0.2123,0.5255-0.4886,0.581v2.3274c0.2763,0.0558,0.4886,0.2888,0.4886,0.5813c0,0.2926-0.2123,0.5255-0.4886,0.581
	v1.7037c0,0.408-0.3311,0.7391-0.7388,0.7391c-0.408,0-0.7391-0.3311-0.7391-0.7391V23.1544c0-2.7844,2.2654-5.0502,5.0505-5.0502
	h2.8992C25.2346,18.1042,27.5,20.3699,27.5,23.1544z M18.0727,22.3323c0,0.3341-0.2709,0.6047-0.6047,0.6047
	s-0.6047-0.2705-0.6047-0.6047c0-0.3339,0.2709-0.6047,0.6047-0.6047S18.0727,21.9984,18.0727,22.3323z M23.2813,20.7159
	c0,0.3338-0.2709,0.6043-0.6044,0.6043c-0.3341,0-0.605-0.2705-0.605-0.6043c0-0.3338,0.2709-0.6047,0.605-0.6047
	C23.0105,20.1112,23.2813,20.3821,23.2813,20.7159z M19.792,20.7159c0,0.3338-0.2709,0.6043-0.6047,0.6043
	s-0.6047-0.2705-0.6047-0.6043c0-0.3338,0.2709-0.6047,0.6047-0.6047S19.792,20.3821,19.792,20.7159z M18.0727,25.6886
	c0,0.3338-0.2709,0.6047-0.6047,0.6047s-0.6047-0.2709-0.6047-0.6047c0-0.3342,0.2709-0.6047,0.6047-0.6047
	S18.0727,25.3544,18.0727,25.6886z M18.0727,29.0449c0,0.3338-0.2709,0.6043-0.6047,0.6043s-0.6047-0.2705-0.6047-0.6043
	c0-0.3342,0.2709-0.6047,0.6047-0.6047S18.0727,28.7107,18.0727,29.0449z M25.0517,29.0449c0,0.3338-0.2705,0.6043-0.6043,0.6043
	c-0.3342,0-0.6047-0.2705-0.6047-0.6043c0-0.3342,0.2705-0.6047,0.6047-0.6047C24.7812,28.4402,25.0517,28.7107,25.0517,29.0449z
	 M21.5624,29.0449c0,0.3338-0.2708,0.6043-0.6047,0.6043s-0.6047-0.2705-0.6047-0.6043c0-0.3342,0.2709-0.6047,0.6047-0.6047
	S21.5624,28.7107,21.5624,29.0449z M18.0727,32.5343c0,0.3342-0.2709,0.6047-0.6047,0.6047s-0.6047-0.2705-0.6047-0.6047
	c0-0.3338,0.2709-0.6047,0.6047-0.6047S18.0727,32.2005,18.0727,32.5343z M25.0517,32.5343c0,0.3342-0.2705,0.6047-0.6043,0.6047
	c-0.3342,0-0.6047-0.2705-0.6047-0.6047c0-0.3338,0.2705-0.6047,0.6047-0.6047C24.7812,31.9296,25.0517,32.2005,25.0517,32.5343z
	 M21.5624,32.5343c0,0.3342-0.2708,0.6047-0.6047,0.6047s-0.6047-0.2705-0.6047-0.6047c0-0.3338,0.2709-0.6047,0.6047-0.6047
	S21.5624,32.2005,21.5624,32.5343z M23.2813,27.4282c0,0.3342-0.2709,0.6043-0.6044,0.6043c-0.3341,0-0.605-0.2702-0.605-0.6043
	c0-0.3338,0.2709-0.6047,0.605-0.6047C23.0105,26.8235,23.2813,27.0944,23.2813,27.4282z M19.792,27.4282
	c0,0.3342-0.2709,0.6043-0.6047,0.6043s-0.6047-0.2702-0.6047-0.6043c0-0.3338,0.2709-0.6047,0.6047-0.6047
	S19.792,27.0944,19.792,27.4282z M23.2813,30.877c0,0.3338-0.2709,0.6043-0.6044,0.6043c-0.3341,0-0.605-0.2705-0.605-0.6043
	c0-0.3338,0.2709-0.6047,0.605-0.6047C23.0105,30.2722,23.2813,30.5431,23.2813,30.877z M19.792,30.877
	c0,0.3338-0.2709,0.6043-0.6047,0.6043s-0.6047-0.2705-0.6047-0.6043c0-0.3338,0.2709-0.6047,0.6047-0.6047
	S19.792,30.5431,19.792,30.877z"/>
</svg>
